<?xml version="1.0" encoding="UTF-8"?>
<svg version="1.1" xmlns="http://www.w3.org/2000/svg" width="698" height="238">
<path d="M0 0 C230.34 0 460.68 0 698 0 C698 78.54 698 157.08 698 238 C467.66 238 237.32 238 0 238 C0 159.46 0 80.92 0 0 Z " fill="#191922" transform="translate(0,0)"/>
<path d="M0 0 C1.37006141 -0.00067891 2.7401227 -0.0016537 4.11018372 -0.00289917 C6.90460419 -0.00433522 9.6989917 -0.0023501 12.4934082 0.00244141 C16.07749728 0.00828923 19.66151392 0.00474254 23.2456007 -0.00113106 C26.0395616 -0.00472294 28.83350481 -0.00360706 31.6274662 -0.00100327 C33.59134088 -0.00001691 35.55521626 -0.00304051 37.51908875 -0.00613403 C38.68994522 -0.00298187 39.8608017 0.00017029 41.06713867 0.00341797 C42.6159095 0.00461136 42.6159095 0.00461136 44.19596863 0.00582886 C46.51953125 0.1328125 46.51953125 0.1328125 47.51953125 1.1328125 C47.75434818 3.31574024 47.93316448 5.50484424 48.08203125 7.6953125 C48.20771484 9.49162109 48.20771484 9.49162109 48.3359375 11.32421875 C48.39652344 12.25105469 48.45710938 13.17789063 48.51953125 14.1328125 C49.17953125 14.1328125 49.83953125 14.1328125 50.51953125 14.1328125 C50.51953125 15.4528125 50.51953125 16.7728125 50.51953125 18.1328125 C51.17953125 18.1328125 51.83953125 18.1328125 52.51953125 18.1328125 C53.19631311 22.29790087 53.85912273 26.46509925 54.51953125 30.6328125 C54.80570313 32.39238281 54.80570313 32.39238281 55.09765625 34.1875 C56.05066232 40.24589573 56.76243114 45.99959032 56.51953125 52.1328125 C43.63470526 53.3549857 30.75383816 54.33261646 17.83203125 55.0703125 C6.27292848 55.73286893 -5.25817601 56.57131123 -16.79296875 57.5703125 C-32.13396379 58.89673658 -47.48410336 59.98667992 -62.84838867 61.00537109 C-71.7996776 61.60056984 -80.74787289 62.21482071 -89.69140625 62.91796875 C-90.51602356 62.98270889 -91.34064087 63.04744904 -92.19024658 63.114151 C-93.01047302 63.17855881 -93.83069946 63.24296661 -94.67578125 63.30932617 C-110.51819498 64.55239387 -126.35686389 65.56506743 -142.23046875 66.3203125 C-143.11688049 66.36310333 -144.00329224 66.40589417 -144.91656494 66.44998169 C-154.44250695 66.904091 -163.94061319 67.27268256 -173.48046875 67.1328125 C-173.48046875 67.7928125 -173.48046875 68.4528125 -173.48046875 69.1328125 C-174.60388672 69.20798096 -175.72730469 69.28314941 -176.88476562 69.3605957 C-199.927795 70.90513542 -222.96370365 72.51817117 -245.99229431 74.26493835 C-246.79405594 74.32575089 -247.59581757 74.38656342 -248.421875 74.44921875 C-249.20780533 74.50886307 -249.99373566 74.56850739 -250.80348206 74.62995911 C-258.76994612 75.23313132 -266.73855883 75.80469479 -274.70825195 76.36352539 C-281.43107898 76.83675883 -288.1515028 77.33484943 -294.87109375 77.8515625 C-312.85682933 79.22656476 -330.83794112 80.4426368 -348.85546875 81.3203125 C-349.7190097 81.3630127 -350.58255066 81.40571289 -351.47225952 81.44970703 C-360.4785091 81.89014739 -369.46031722 82.27992119 -378.48046875 82.1328125 C-381.26857096 68.4123532 -382.53147951 54.70466682 -383.60546875 40.7578125 C-383.85736135 37.55015535 -384.11160338 34.34272252 -384.37008667 31.1355896 C-384.52899172 29.15823966 -384.68388976 27.18056252 -384.83425903 25.20254517 C-384.90458344 24.31666718 -384.97490784 23.43078918 -385.04736328 22.51806641 C-385.10715363 21.74105377 -385.16694397 20.96404114 -385.22854614 20.16348267 C-385.43750992 17.93331427 -385.43750992 17.93331427 -386.48046875 15.1328125 C-386.65859499 12.4399629 -386.56774573 9.83839882 -386.48046875 7.1328125 C-384.60408131 5.25642506 -381.39725503 5.94918364 -378.89501953 5.91212463 C-378.1962715 5.90043316 -377.49752346 5.88874169 -376.77760124 5.87669593 C-374.41037627 5.83831022 -372.04310868 5.80701917 -369.67578125 5.77563477 C-367.97704429 5.74955541 -366.27831389 5.72304568 -364.57958984 5.69613838 C-359.90762371 5.6234051 -355.23558663 5.5568522 -350.56351471 5.49131751 C-345.57728435 5.42035373 -340.59113875 5.3438516 -335.60498047 5.26802063 C-325.92355957 5.12167465 -316.24206852 4.98060629 -306.56054497 4.84123665 C-295.38492686 4.68009979 -284.20940074 4.51296592 -273.0338726 4.34572601 C-231.27149689 3.72143316 -189.50873878 3.12532658 -147.74549484 2.56212783 C-145.1838547 2.52755813 -142.62221584 2.49289511 -140.06057739 2.45820045 C-125.09138787 2.25548912 -110.12220155 2.05290873 -95.15283871 1.86335772 C-89.43869853 1.79094039 -83.72458674 1.71651862 -78.01049137 1.64064866 C-74.78300328 1.59791858 -71.55550822 1.55661287 -68.32797241 1.51763344 C-54.28090677 1.34784253 -40.25403742 1.01307765 -26.2159605 0.47814941 C-17.47207013 0.15050632 -8.74997366 -0.01439535 0 0 Z " fill="#363360" transform="translate(608.48046875,74.8671875)"/>
<path d="M0 0 C9.23926408 -0.06105881 18.45421643 0.11000926 27.6875 0.4375 C28.94755859 0.47681641 30.20761719 0.51613281 31.50585938 0.55664062 C32.70404297 0.59853516 33.90222656 0.64042969 35.13671875 0.68359375 C36.75646606 0.73858032 36.75646606 0.73858032 38.40893555 0.79467773 C41 1 41 1 43 2 C45.45482348 2.1411177 47.88482251 2.22448121 50.34179688 2.26538086 C51.47927872 2.29004173 51.47927872 2.29004173 52.63973999 2.31520081 C54.29406015 2.35053038 55.94842755 2.38369746 57.60282898 2.41499138 C60.2482423 2.46540579 62.89345054 2.52218654 65.53869629 2.58070374 C73.06370181 2.74596188 80.58893482 2.89952736 88.11425781 3.04956055 C124.3412281 3.77775439 124.3412281 3.77775439 137.40625 4.96875 C150.08602182 6.1145045 162.77784624 6.45539129 175.5 6.81640625 C177.16048119 6.86353665 177.16048119 6.86353665 178.85450745 6.91161919 C185.73139721 7.10457503 192.60850772 7.2885893 199.48571777 7.46972656 C208.77103024 7.71484926 218.05611453 7.9679888 227.34106445 8.22645378 C230.55477188 8.31448258 233.76857671 8.39778101 236.98242188 8.48060608 C238.95964021 8.53450242 240.93685402 8.58856559 242.9140625 8.64282227 C243.7910379 8.66413712 244.66801331 8.68545197 245.57156372 8.70741272 C250.57299129 8.8496294 255.4958597 9.22919592 260.47008896 9.76004314 C264.86691413 10.17707296 269.27154543 10.32100677 273.68408203 10.47802734 C274.70484707 10.5165897 275.72561211 10.55515205 276.77730942 10.59488297 C280.14568485 10.72063425 283.51422033 10.84114124 286.8828125 10.9609375 C288.64490744 11.02497835 288.64490744 11.02497835 290.44260025 11.09031296 C317.98674597 12.08917799 345.53738112 12.82480393 373.09039307 13.52801514 C379.54990297 13.69354744 386.00932137 13.86258093 392.46875 14.03125 C404.97908331 14.35743931 417.48950679 14.68000596 430 15 C430 16.65 430 18.3 430 20 C430.66 20 431.32 20 432 20 C432.20496094 21.28777344 432.40992188 22.57554688 432.62109375 23.90234375 C432.89301652 25.58076363 433.16516351 27.2591472 433.4375 28.9375 C433.57220703 29.78763672 433.70691406 30.63777344 433.84570312 31.51367188 C433.97783203 32.32255859 434.10996094 33.13144531 434.24609375 33.96484375 C434.36654053 34.7137085 434.4869873 35.46257324 434.61108398 36.23413086 C434.83759904 38.0170885 434.83759904 38.0170885 436 39 C436.16264275 40.74690364 436.27869612 42.49818649 436.375 44.25 C436.80592152 50.14161558 437.94486904 55.6603865 439.37890625 61.3828125 C440 64 440 64 440 66 C439.14247383 66.0154612 439.14247383 66.0154612 438.2676239 66.03123474 C432.21455282 66.14102071 426.16158076 66.25543552 420.10864258 66.37231445 C417.86191925 66.41512293 415.61517451 66.45682473 413.3684082 66.49731445 C410.10361314 66.55635629 406.83892077 66.61963347 403.57421875 66.68359375 C402.60046799 66.70030624 401.62671722 66.71701874 400.62345886 66.73423767 C395.29939657 66.84264067 389.99083504 67.04617048 384.67516327 67.35410404 C371.77160634 68.09761203 358.87107187 68.3064471 345.94921875 68.5 C343.40800613 68.54046213 340.8667973 68.58116362 338.32559204 68.62208557 C332.22542575 68.71929542 326.12521392 68.81291013 320.02496076 68.90448874 C315.06629124 68.9789721 310.1076489 69.05508406 305.14901733 69.13204956 C262.66287478 69.79035865 220.17671449 70.30174727 177.68701172 70.67358398 C173.62467273 70.70927728 169.56233556 70.7451685 165.5 70.78125 C164.52253941 70.78990145 163.54507881 70.79855289 162.5379982 70.80746651 C149.67037739 70.92263045 136.80396667 71.07366319 123.9375 71.28125 C123.20160582 71.29310837 122.46571163 71.30496674 121.70751762 71.31718445 C116.06882568 71.40852197 110.4301753 71.50235416 104.79152298 71.59609985 C72.52783403 72.12952949 40.26705947 72.10408881 8 72 C6.4523445 68.90468901 6.55590549 65.6333237 6.28125 62.21484375 C6.2334259 60.02929332 6.2334259 60.02929332 5 59 C4.79103683 57.19188816 4.63219639 55.37783968 4.5 53.5625 C4.28580817 49.63565085 4.28580817 49.63565085 3 46 C2.85994483 44.41878432 2.77444016 42.83252278 2.71875 41.24609375 C2.68136719 40.30958984 2.64398438 39.37308594 2.60546875 38.40820312 C2.53501774 36.42383304 2.46470578 34.43945801 2.39453125 32.45507812 C2.35714844 31.51986328 2.31976563 30.58464844 2.28125 29.62109375 C2.25095703 28.7592749 2.22066406 27.89745605 2.18945312 27.00952148 C2.21575116 25.00321283 2.21575116 25.00321283 1 24 C0.01240968 16.02612263 -0.11628705 8.02289787 0 0 Z " fill="#24754A" transform="translate(215,6)"/>
<path d="M0 0 C9.23926408 -0.06105881 18.45421643 0.11000926 27.6875 0.4375 C28.94755859 0.47681641 30.20761719 0.51613281 31.50585938 0.55664062 C32.70404297 0.59853516 33.90222656 0.64042969 35.13671875 0.68359375 C36.75646606 0.73858032 36.75646606 0.73858032 38.40893555 0.79467773 C41 1 41 1 43 2 C45.45482348 2.1411177 47.88482251 2.22448121 50.34179688 2.26538086 C51.47927872 2.29004173 51.47927872 2.29004173 52.63973999 2.31520081 C54.29406015 2.35053038 55.94842755 2.38369746 57.60282898 2.41499138 C60.2482423 2.46540579 62.89345054 2.52218654 65.53869629 2.58070374 C73.06370181 2.74596188 80.58893482 2.89952736 88.11425781 3.04956055 C124.3412281 3.77775439 124.3412281 3.77775439 137.40625 4.96875 C150.08602182 6.1145045 162.77784624 6.45539129 175.5 6.81640625 C177.16048119 6.86353665 177.16048119 6.86353665 178.85450745 6.91161919 C185.73139721 7.10457503 192.60850772 7.2885893 199.48571777 7.46972656 C208.77103024 7.71484926 218.05611453 7.9679888 227.34106445 8.22645378 C230.55477188 8.31448258 233.76857671 8.39778101 236.98242188 8.48060608 C238.95964021 8.53450242 240.93685402 8.58856559 242.9140625 8.64282227 C243.7910379 8.66413712 244.66801331 8.68545197 245.57156372 8.70741272 C250.57299129 8.8496294 255.4958597 9.22919592 260.47008896 9.76004314 C264.86691413 10.17707296 269.27154543 10.32100677 273.68408203 10.47802734 C274.70484707 10.5165897 275.72561211 10.55515205 276.77730942 10.59488297 C280.14568485 10.72063425 283.51422033 10.84114124 286.8828125 10.9609375 C288.64490744 11.02497835 288.64490744 11.02497835 290.44260025 11.09031296 C317.98674597 12.08917799 345.53738112 12.82480393 373.09039307 13.52801514 C379.54990297 13.69354744 386.00932137 13.86258093 392.46875 14.03125 C404.97908331 14.35743931 417.48950679 14.68000596 430 15 C430 16.65 430 18.3 430 20 C430.66 20 431.32 20 432 20 C432.66 25.28 433.32 30.56 434 36 C430.97910522 36.02716089 427.95845871 36.04691657 424.9375 36.0625 C424.08994141 36.07087891 423.24238281 36.07925781 422.36914062 36.08789062 C417.46446581 36.10682759 412.85954145 35.73611989 408 35 C405.7508193 34.93581105 403.49997092 34.9137327 401.25 34.9375 C400.14140625 34.94652344 399.0328125 34.95554688 397.890625 34.96484375 C396.93671875 34.97644531 395.9828125 34.98804688 395 35 C394.01 35 393.02 35 392 35 C390.989375 35.020625 389.97875 35.04125 388.9375 35.0625 C386 35 386 35 384 34 C384 34.66 384 35.32 384 36 C382.35 36 380.7 36 379 36 C378.34 34.35 377.68 32.7 377 31 C375.68 31 374.36 31 373 31 C372.76667969 31.64195313 372.53335937 32.28390625 372.29296875 32.9453125 C371 35 371 35 368.86328125 35.6796875 C363.3377991 36.10277189 359.35202909 35.6157069 354 34 C351.6593935 34.27769908 349.32375692 34.60539977 347 35 C345.65737935 34.70630173 344.32303717 34.3721042 343 34 C340.6670386 33.95833998 338.3329614 33.95833998 336 34 C334.68 34 333.36 34 332 34 C330.58095324 34.14501208 329.16392405 34.31147679 327.75 34.5 C325.89375 34.7475 325.89375 34.7475 324 35 C323.67 34.01 323.34 33.02 323 32 C322.01 31.67 321.02 31.34 320 31 C320 31.99 320 32.98 320 34 C314.77254141 35.2063366 310.23471686 34.75612577 305 34 C304.67 33.01 304.34 32.02 304 31 C303.01 30.67 302.02 30.34 301 30 C300.34 31.32 299.68 32.64 299 34 C297.68 34 296.36 34 295 34 C294.34 33.01 293.68 32.02 293 31 C292.67 32.32 292.34 33.64 292 35 C291.34 35 290.68 35 290 35 C290 34.34 290 33.68 290 33 C288.82630859 33.01740234 288.82630859 33.01740234 287.62890625 33.03515625 C286.61699219 33.04417969 285.60507812 33.05320313 284.5625 33.0625 C283.55316406 33.07410156 282.54382813 33.08570313 281.50390625 33.09765625 C279 33 279 33 278 32 C277.67 32.66 277.34 33.32 277 34 C276.34 34 275.68 34 275 34 C274.34 32.35 273.68 30.7 273 29 C272.01 29 271.02 29 270 29 C270 29.99 270 30.98 270 32 C253.1070615 32.55353075 253.1070615 32.55353075 246 29 C245.67 29.99 245.34 30.98 245 32 C242.03421164 33.16513114 239.15436364 33.08762121 236 33 C236 32.01 236 31.02 236 30 C234.7625 30.165 233.525 30.33 232.25 30.5 C228.81251739 30.95833101 225.46949577 31 222 31 C222 31.99 222 32.98 222 34 C221.34 34 220.68 34 220 34 C219.67 33.34 219.34 32.68 219 32 C217.68 32.33 216.36 32.66 215 33 C214.34 32.01 213.68 31.02 213 30 C212.34 30 211.68 30 211 30 C211 31.65 211 33.3 211 35 C207.535 33.515 207.535 33.515 204 32 C204 32.66 204 33.32 204 34 C203.34 34 202.68 34 202 34 C202 33.34 202 32.68 202 32 C200.948125 32.37125 199.89625 32.7425 198.8125 33.125 C194.81367786 34.04276246 193.50871784 33.91384609 190 32 C189.67 32.66 189.34 33.32 189 34 C187.68 34 186.36 34 185 34 C185 32.68 185 31.36 185 30 C183.948125 30.515625 182.89625 31.03125 181.8125 31.5625 C178.51476233 32.99688183 176.4935632 33.16452107 173 32 C173 30.68 173 29.36 173 28 C170.03 28 167.06 28 164 28 C164 28.66 164 29.32 164 30 C163.34 30 162.68 30 162 30 C162 30.66 162 31.32 162 32 C160.02 31.67 158.04 31.34 156 31 C155.67 31.66 155.34 32.32 155 33 C152.03 32.01 149.06 31.02 146 30 C145.34 31.32 144.68 32.64 144 34 C143.01 33.67 142.02 33.34 141 33 C140.67 32.34 140.34 31.68 140 31 C139.67 31.66 139.34 32.32 139 33 C138.21625 32.67 137.4325 32.34 136.625 32 C134.15667503 30.88133489 134.15667503 30.88133489 132 31 C132 31.99 132 32.98 132 34 C129.03 33.505 129.03 33.505 126 33 C126 32.34 126 31.68 126 31 C125.360625 30.87625 124.72125 30.7525 124.0625 30.625 C123.381875 30.41875 122.70125 30.2125 122 30 C121.505 29.01 121.505 29.01 121 28 C120.649375 28.495 120.29875 28.99 119.9375 29.5 C117.05625711 31.73063966 114.52990974 31.19980621 111 31 C110.67 31.99 110.34 32.98 110 34 C108.35 33.67 106.7 33.34 105 33 C105 32.01 105 31.02 105 30 C104.01 30 103.02 30 102 30 C102 28.68 102 27.36 102 26 C101.34 26 100.68 26 100 26 C99.505 28.475 99.505 28.475 99 31 C97.25 31.6875 97.25 31.6875 95 32 C92.75 30.5625 92.75 30.5625 91 29 C90.34 29.66 89.68 30.32 89 31 C88.67 29.35 88.34 27.7 88 26 C87.34 26 86.68 26 86 26 C85.855625 26.598125 85.71125 27.19625 85.5625 27.8125 C85.1127561 29.56150404 84.57107659 31.28677023 84 33 C78.25 31.125 78.25 31.125 76 30 C76 30.66 76 31.32 76 32 C75.34 32 74.68 32 74 32 C73.505 31.01 73.505 31.01 73 30 C72.484375 30.37125 71.96875 30.7425 71.4375 31.125 C67.8540302 32.41137378 65.50741486 31.23409041 62 30 C61.34 29.67 60.68 29.34 60 29 C60 28.34 60 27.68 60 27 C57.03 27.495 57.03 27.495 54 28 C54 27.01 54 26.02 54 25 C52.68 24.67 51.36 24.34 50 24 C50 24.99 50 25.98 50 27 C44.16605611 28.10643764 41.23420787 28.27137992 36 25 C35.67 25.66 35.34 26.32 35 27 C32.78515625 27.37890625 32.78515625 27.37890625 30.0625 27.5625 C26.39324879 27.76801323 26.39324879 27.76801323 23 29 C22.67 27.68 22.34 26.36 22 25 C21.34 25 20.68 25 20 25 C19.67 25.99 19.34 26.98 19 28 C19 27.34 19 26.68 19 26 C17.68 25.67 16.36 25.34 15 25 C15 25.66 15 26.32 15 27 C13 28 13 28 5 28 C5 34.6 5 41.2 5 48 C2.52030816 45.52030816 2.72049164 44.6694081 2.62109375 41.24609375 C2.58693359 40.30958984 2.55277344 39.37308594 2.51757812 38.40820312 C2.49115234 37.42787109 2.46472656 36.44753906 2.4375 35.4375 C2.37782098 33.49856662 2.31423391 31.55974822 2.24609375 29.62109375 C2.22216553 28.7592749 2.1982373 27.89745605 2.17358398 27.00952148 C2.21742168 25.0028785 2.21742168 25.0028785 1 24 C0.01240968 16.02612263 -0.11628705 8.02289787 0 0 Z " fill="#24754A" transform="translate(215,6)"/>
<path d="M0 0 C0.33 0.66 0.66 1.32 1 2 C5.79132057 3.72487541 9.92716361 4.20705455 15 4 C15 3.01 15 2.02 15 1 C16.32 1.33 17.64 1.66 19 2 C19 2.99 19 3.98 19 5 C20.98 4.67 22.96 4.34 25 4 C25 4.66 25 5.32 25 6 C26.76602319 6.41676948 28.53814301 6.8077738 30.3125 7.1875 C31.29863281 7.40792969 32.28476562 7.62835938 33.30078125 7.85546875 C36.0367814 8.29829375 36.0367814 8.29829375 37.85546875 6.55078125 C38.23316406 6.03902344 38.61085938 5.52726562 39 5 C39 6.32 39 7.64 39 9 C39.66 9 40.32 9 41 9 C41 8.34 41 7.68 41 7 C46.75 8.875 46.75 8.875 49 10 C49.144375 9.401875 49.28875 8.80375 49.4375 8.1875 C49.8872439 6.43849596 50.42892341 4.71322977 51 3 C51.66 3 52.32 3 53 3 C53.495 4.485 53.495 4.485 54 6 C54.99 6 55.98 6 57 6 C57.99 6 58.98 6 60 6 C60 6.99 60 7.98 60 9 C60.99 8.67 61.98 8.34 63 8 C64.21869929 5.49552484 64.21869929 5.49552484 65 3 C65.66 3 66.32 3 67 3 C67 4.32 67 5.64 67 7 C67.99 7 68.98 7 70 7 C70 7.99 70 8.98 70 10 C70.99 10 71.98 10 73 10 C73.33 9.01 73.66 8.02 74 7 C74.495 8.485 74.495 8.485 75 10 C75.33 9.34 75.66 8.68 76 8 C76.99 8 77.98 8 79 8 C79.33 7.34 79.66 6.68 80 6 C80 6.66 80 7.32 80 8 C80.99 8 81.98 8 83 8 C83.33 6.68 83.66 5.36 84 4 C87 5 87 5 88 7 C88.99 7.33 89.98 7.66 91 8 C91 8.66 91 9.32 91 10 C93.97 10.495 93.97 10.495 97 11 C97 10.01 97 9.02 97 8 C97.66 8 98.32 8 99 8 C99.33 7.34 99.66 6.68 100 6 C101.98 7.98 101.98 7.98 104 10 C104.66 8.68 105.32 7.36 106 6 C106.12375 6.639375 106.2475 7.27875 106.375 7.9375 C106.58125 8.618125 106.7875 9.29875 107 10 C107.99 10.495 107.99 10.495 109 11 C109 9.35 109 7.7 109 6 C114.75 6.875 114.75 6.875 117 8 C117.66 7.01 118.32 6.02 119 5 C119.33 6.32 119.66 7.64 120 9 C121.32 8.67 122.64 8.34 124 8 C124.33 6.68 124.66 5.36 125 4 C125 5.65 125 7.3 125 9 C125.66 9 126.32 9 127 9 C127 8.34 127 7.68 127 7 C127.66 7 128.32 7 129 7 C129 6.34 129 5.68 129 5 C132.37817425 4.15545644 134.67465243 3.89155081 138 5 C138.33 6.32 138.66 7.64 139 9 C140.98 9.495 140.98 9.495 143 10 C143.33 8.68 143.66 7.36 144 6 C144.33 6.66 144.66 7.32 145 8 C146.65 7.67 148.3 7.34 150 7 C150 8.32 150 9.64 150 11 C151.32 11 152.64 11 154 11 C154.33 10.01 154.66 9.02 155 8 C155.33 8.66 155.66 9.32 156 10 C156.99 9.67 157.98 9.34 159 9 C159.99 9.495 159.99 9.495 161 10 C163.00800456 9.71887936 165.01014051 9.38932033 167 9 C167 9.66 167 10.32 167 11 C167.66 11 168.32 11 169 11 C169 10.34 169 9.68 169 9 C173.875 9.875 173.875 9.875 175 11 C175.1546875 10.0409375 175.1546875 10.0409375 175.3125 9.0625 C175.6528125 8.0415625 175.6528125 8.0415625 176 7 C176.99 6.67 177.98 6.34 179 6 C179.33 6.99 179.66 7.98 180 9 C181.32 9 182.64 9 184 9 C184.33 8.34 184.66 7.68 185 7 C185 8.32 185 9.64 185 11 C185.66 11 186.32 11 187 11 C187 10.01 187 9.02 187 8 C187.66 8 188.32 8 189 8 C189 6.35 189 4.7 189 3 C189.99 4.98 189.99 4.98 191 7 C194.3 7 197.6 7 201 7 C201 7.99 201 8.98 201 10 C205.75760977 9.83945024 205.75760977 9.83945024 209.4375 7.3125 C209.953125 6.879375 210.46875 6.44625 211 6 C212.85887248 6.43936986 214.71559224 6.89711434 216.54296875 7.453125 C220.44389626 8.32137596 224.28940377 8.0911188 228.265625 7.97265625 C230.72484058 7.99724841 232.66270869 8.28211767 235 9 C235 8.01 235 7.02 235 6 C236.32 5.67 237.64 5.34 239 5 C239.33 6.98 239.66 8.96 240 11 C240.66 11 241.32 11 242 11 C242.33 10.01 242.66 9.02 243 8 C247.02992782 8.55312735 251.02022924 9.1558062 255 10 C255 10.66 255 11.32 255 12 C255.66 12 256.32 12 257 12 C257 10.35 257 8.7 257 7 C257.99 7.66 258.98 8.32 260 9 C260 9.66 260 10.32 260 11 C261.32 11 262.64 11 264 11 C264.33 9.35 264.66 7.7 265 6 C268.875 7.75 268.875 7.75 270 10 C272.54941373 10.31241371 275.00361513 10.51303421 277.5625 10.625 C278.27341797 10.66367187 278.98433594 10.70234375 279.71679688 10.7421875 C281.47742425 10.83671783 283.23867728 10.91945817 285 11 C285 10.01 285 9.02 285 8 C286.98 8.495 286.98 8.495 289 9 C289 9.99 289 10.98 289 12 C289.515625 11.649375 290.03125 11.29875 290.5625 10.9375 C293.92518431 9.64415988 296.50348666 10.40625245 300 11 C300.33 10.67 300.66 10.34 301 10 C304.4910947 9.86309433 307.68242188 9.94283594 311.125 10.5625 C313.93991112 11.17170889 313.93991112 11.17170889 316.4375 10.4375 C319 10 319 10 322.1875 11 C326.89609277 12.23504073 331.27517987 12.28701682 336 11 C336.66 10.01 337.32 9.02 338 8 C339.32 8 340.64 8 342 8 C343.02028865 9.31787285 344.01971384 10.65210653 345 12 C347.09415804 12.79623822 347.09415804 12.79623822 349 13 C349 12.34 349 11.68 349 11 C351.97851562 11.04882812 351.97851562 11.04882812 354.95703125 11.09765625 C357.20305461 11.08263217 357.20305461 11.08263217 360 10 C360 10.66 360 11.32 360 12 C360.52980469 11.83757813 361.05960938 11.67515625 361.60546875 11.5078125 C368.85581524 9.97021863 376.75196626 10.86305353 384 12 C385.32 12 386.64 12 388 12 C391.83791866 12 395.23103277 12.3718388 399 13 C399.33 16.3 399.66 19.6 400 23 C398.02 23 396.04 23 394 23 C394 23.66 394 24.32 394 25 C392.68 25 391.36 25 390 25 C390 24.34 390 23.68 390 23 C387.69 23 385.38 23 383 23 C383 23.99 383 24.98 383 26 C381.27119018 26.05449838 379.54187288 26.09301688 377.8125 26.125 C376.36810547 26.15980469 376.36810547 26.15980469 374.89453125 26.1953125 C371.87187222 25.9913544 369.73230015 25.26874632 367 24 C367 24.66 367 25.32 367 26 C364.69 26.33 362.38 26.66 360 27 C360 26.01 360 25.02 360 24 C357.9160597 24.11443603 355.83283507 24.24195547 353.75 24.375 C352.00976562 24.47941406 352.00976562 24.47941406 350.234375 24.5859375 C347.29305666 24.96248308 345.50050989 25.4774123 343 27 C343 26.34 343 25.68 343 25 C340.75006641 24.97292861 338.50003905 24.95357171 336.25 24.9375 C334.37054687 24.92009766 334.37054687 24.92009766 332.453125 24.90234375 C329.65930008 24.98135464 327.65165268 25.33288231 325 26 C323.39080653 25.89218134 321.78503394 25.72139053 320.1875 25.5 C316.87188701 25.10505198 314.54663092 25.06689052 311.1875 25.5625 C306.37319783 26.22328657 303.93974578 24.62649719 300 22 C300 22.66 300 23.32 300 24 C296.85375007 24.26218749 295.38162983 24.24754367 292.6875 22.5 C292.130625 22.005 291.57375 21.51 291 21 C290.67 22.65 290.34 24.3 290 26 C289.34 24.68 288.68 23.36 288 22 C287.34773438 22.0721875 286.69546875 22.144375 286.0234375 22.21875 C281.31441111 22.7188236 276.73728875 23 272 23 C270.32546201 23.291224 268.65449105 23.61070799 267 24 C267 23.34 267 22.68 267 22 C266.34 22 265.68 22 265 22 C265 22.66 265 23.32 265 24 C264.34 24 263.68 24 263 24 C263 24.66 263 25.32 263 26 C261.02 26.495 261.02 26.495 259 27 C258.67 25.35 258.34 23.7 258 22 C257.01 22 256.02 22 255 22 C255 22.66 255 23.32 255 24 C254.01 24 253.02 24 252 24 C252 24.99 252 25.98 252 27 C251.01 27 250.02 27 249 27 C249 25.35 249 23.7 249 22 C248.01 22 247.02 22 246 22 C245.67 22.66 245.34 23.32 245 24 C245 23.34 245 22.68 245 22 C243.02 22.66 241.04 23.32 239 24 C239 23.34 239 22.68 239 22 C238.01 22 237.02 22 236 22 C235.67 22.66 235.34 23.32 235 24 C233.35 23.34 231.7 22.68 230 22 C229.34 22.66 228.68 23.32 228 24 C228 23.34 228 22.68 228 22 C225.69 22.33 223.38 22.66 221 23 C221 23.66 221 24.32 221 25 C219.02 25 217.04 25 215 25 C214.67 24.01 214.34 23.02 214 22 C209.05 22.33 204.1 22.66 199 23 C198.67 24.32 198.34 25.64 198 27 C198 25.68 198 24.36 198 23 C197.34 23 196.68 23 196 23 C195.67 23.66 195.34 24.32 195 25 C193.35 24.34 191.7 23.68 190 23 C190 22.34 190 21.68 190 21 C187.36 21.33 184.72 21.66 182 22 C182 22.66 182 23.32 182 24 C180.68 23.67 179.36 23.34 178 23 C178 22.34 178 21.68 178 21 C176.02 21.66 174.04 22.32 172 23 C172 22.34 172 21.68 172 21 C166.98464948 21.32960216 166.98464948 21.32960216 163 24 C163 23.01 163 22.02 163 21 C162.34 21 161.68 21 161 21 C160.67 21.66 160.34 22.32 160 23 C160 22.34 160 21.68 160 21 C158.88625 21.2475 158.88625 21.2475 157.75 21.5 C153.59627901 22.255222 150.07194868 21.90487749 146 21 C145.67 22.32 145.34 23.64 145 25 C144.67 23.68 144.34 22.36 144 21 C142.68 21 141.36 21 140 21 C140 21.66 140 22.32 140 23 C139.34 23 138.68 23 138 23 C138 23.99 138 24.98 138 26 C135.6568787 25.74438677 133.32156597 25.40729228 131 25 C130.67 24.34 130.34 23.68 130 23 C129.34 23 128.68 23 128 23 C128 23.66 128 24.32 128 25 C127.34 25 126.68 25 126 25 C125.67 23.68 125.34 22.36 125 21 C124.34 21.33 123.68 21.66 123 22 C123 21.34 123 20.68 123 20 C122.11248047 20.19916016 122.11248047 20.19916016 121.20703125 20.40234375 C117.14553475 21.31005178 113.08625829 22.2091113 109 23 C108.67 22.01 108.34 21.02 108 20 C105.69 20 103.38 20 101 20 C101 20.66 101 21.32 101 22 C99.68 22 98.36 22 97 22 C97 21.34 97 20.68 97 20 C96.34 20 95.68 20 95 20 C95 20.66 95 21.32 95 22 C93.02 22 91.04 22 89 22 C88.505 23.485 88.505 23.485 88 25 C87.01 25 86.02 25 85 25 C84.505 23.515 84.505 23.515 84 22 C82.02 21.67 80.04 21.34 78 21 C78 20.34 78 19.68 78 19 C77.01 19 76.02 19 75 19 C75 19.66 75 20.32 75 21 C73.35 21 71.7 21 70 21 C69.505 22.485 69.505 22.485 69 24 C68.505 22.02 68.505 22.02 68 20 C65.03 20 62.06 20 59 20 C59 20.66 59 21.32 59 22 C58.34 22 57.68 22 57 22 C57 21.34 57 20.68 57 20 C56.34 20 55.68 20 55 20 C55 22.31 55 24.62 55 27 C54.67 27 54.34 27 54 27 C54 25.35 54 23.7 54 22 C53.01 22 52.02 22 51 22 C50.67 22.66 50.34 23.32 50 24 C49.505 22.02 49.505 22.02 49 20 C48.505 22.475 48.505 22.475 48 25 C47.34 25 46.68 25 46 25 C46 23.68 46 22.36 46 21 C42.04 20.67 38.08 20.34 34 20 C34 20.66 34 21.32 34 22 C32.02 21.67 30.04 21.34 28 21 C28 21.66 28 22.32 28 23 C25.69 23 23.38 23 21 23 C20.505 25.475 20.505 25.475 20 28 C19.01 28 18.02 28 17 28 C17 26.35 17 24.7 17 23 C16.34 23 15.68 23 15 23 C15 23.66 15 24.32 15 25 C13.35 25.33 11.7 25.66 10 26 C9.505 25.01 9.505 25.01 9 24 C8.67 25.32 8.34 26.64 8 28 C7.34 28 6.68 28 6 28 C6 27.34 6 26.68 6 26 C5.34 26 4.68 26 4 26 C4 26.66 4 27.32 4 28 C3.34 28 2.68 28 2 28 C2 26.68 2 25.36 2 24 C1.01 24.33 0.02 24.66 -1 25 C-1 24.01 -1 23.02 -1 22 C-5.95 22 -10.9 22 -16 22 C-16.33 22.99 -16.66 23.98 -17 25 C-17 24.01 -17 23.02 -17 22 C-17.598125 22.20625 -18.19625 22.4125 -18.8125 22.625 C-21 23 -21 23 -24 21 C-24.33 21.99 -24.66 22.98 -25 24 C-26.65 24.33 -28.3 24.66 -30 25 C-30.97299156 20.14270355 -31.12038805 15.5499375 -31.0625 10.625 C-31.05798828 9.88894531 -31.05347656 9.15289062 -31.04882812 8.39453125 C-31.03715142 6.59631842 -31.01922011 4.79814803 -31 3 C-30.67 3.66 -30.34 4.32 -30 5 C-26.7 4.67 -23.4 4.34 -20 4 C-20 3.34 -20 2.68 -20 2 C-19.401875 2.185625 -18.80375 2.37125 -18.1875 2.5625 C-15.83591238 3.22093687 -15.83591238 3.22093687 -13 2 C-12.34 2.66 -11.68 3.32 -11 4 C-8.84527127 3.98435123 -8.84527127 3.98435123 -6.5 3.5625 C-2.20099256 2.89950372 -2.20099256 2.89950372 0 4 C0 2.68 0 1.36 0 0 Z " fill="#01F78A" transform="translate(250,29)"/>
<path d="M0 0 C0.33 0 0.66 0 1 0 C1.33 3.96 1.66 7.92 2 12 C3.4647879 11.97716446 4.92957581 11.95432892 6.43875122 11.93080139 C25.33409726 11.6367237 44.22952084 11.34788475 63.125 11.0625 C64.27575075 11.0451071 64.27575075 11.0451071 65.44974899 11.02736282 C105.4742207 10.42266877 145.49754181 9.86986881 185.52525711 9.52561569 C224.10088962 9.19343857 262.67265846 8.69798303 301.24495757 8.09948874 C306.20853221 8.0225512 311.17213063 7.94731745 316.13574219 7.87280273 C322.82182874 7.77228515 329.50783576 7.66747607 336.19381142 7.55979919 C338.65410921 7.52062266 341.11442483 7.48254668 343.57475853 7.44569397 C355.29094407 7.26896369 366.98102035 7.02279432 378.67998695 6.34657669 C384.95549717 5.98518743 391.21759002 5.82448918 397.50390625 5.796875 C399.08787453 5.78832489 399.08787453 5.78832489 400.70384216 5.77960205 C402.88873333 5.77030969 405.07363751 5.76368269 407.25854492 5.75976562 C410.61725693 5.74983815 413.97540932 5.71858667 417.33398438 5.6875 C419.47395476 5.68098785 421.61392943 5.67573042 423.75390625 5.671875 C425.25673912 5.6533548 425.25673912 5.6533548 426.78993225 5.63446045 C427.70947189 5.63746155 428.62901154 5.64046265 429.57641602 5.64355469 C430.78951195 5.63808624 430.78951195 5.63808624 432.02711487 5.63250732 C432.67816696 5.75377991 433.32921906 5.87505249 434 6 C437.51769206 11.27653809 437.10579441 16.86392402 437 23 C436.67 23 436.34 23 436 23 C435.34 18.71 434.68 14.42 434 10 C426.26940197 9.97702173 418.53882403 9.95884572 410.80820084 9.94818783 C407.21505676 9.94306179 403.62193806 9.93616241 400.02880859 9.92456055 C396.53387979 9.91335191 393.03897468 9.90764691 389.54402924 9.90512276 C387.62189446 9.90248934 385.69976868 9.89474593 383.77764893 9.88670349 C375.25688459 9.88619238 366.76613589 10.14472659 358.25285339 10.47705078 C343.50093345 11.02563337 328.75260943 11.28391119 313.99243164 11.48071289 C311.21451989 11.51967614 308.43662141 11.55955336 305.65872192 11.59938049 C298.97526024 11.69465963 292.29175868 11.78676574 285.60823668 11.87770445 C277.7916386 11.98418351 269.97508726 12.09392643 262.15853565 12.20375483 C248.19776547 12.39980398 234.23695671 12.59295301 220.27612305 12.78442383 C206.7878108 12.96941653 193.29952997 13.15651791 179.8112793 13.34594727 C178.97921528 13.35763252 178.14715127 13.36931778 177.28987319 13.38135714 C176.45911804 13.3930242 175.62836289 13.40469126 174.77243334 13.41671187 C159.32191534 13.63368193 143.87137081 13.84870854 128.42081295 14.06282096 C122.99564986 14.13804394 117.57049471 14.21382287 112.14534187 14.28978157 C105.52316724 14.38246 98.90097787 14.47399904 92.2787689 14.56419236 C88.9119939 14.6100665 85.54522993 14.65652313 82.17847633 14.7039566 C61.64019428 14.99281229 41.10782018 15.22910371 20.57202148 14.68261719 C19.03176384 14.64334103 17.49138264 14.60870159 15.95092773 14.578125 C13.6713755 14.5328312 11.39246203 14.47500884 9.11328125 14.4140625 C8.42389969 14.40251129 7.73451813 14.39096008 7.02424622 14.37905884 C2.22847177 14.22847177 2.22847177 14.22847177 0 12 C-0.1953125 9.1796875 -0.1953125 9.1796875 -0.125 5.875 C-0.10695312 4.77929688 -0.08890625 3.68359375 -0.0703125 2.5546875 C-0.04710937 1.71164063 -0.02390625 0.86859375 0 0 Z " fill="#1F3234" transform="translate(221,66)"/>
<path d="M0 0 C3.21284151 0.08277853 4.41061379 0.23904777 7.1875 2 C8.9875104 4.97393023 8.93568741 6.95743849 8.625 10.375 C9.22828125 10.230625 9.8315625 10.08625 10.453125 9.9375 C11.25234375 9.751875 12.0515625 9.56625 12.875 9.375 C13.66390625 9.189375 14.4528125 9.00375 15.265625 8.8125 C17.625 8.375 17.625 8.375 21.625 8.375 C21.625 7.715 21.625 7.055 21.625 6.375 C22.945 6.375 24.265 6.375 25.625 6.375 C27.09763896 9.32027792 27.01701516 12.16572719 27.25 15.4375 C27.34539062 16.70722656 27.44078125 17.97695312 27.5390625 19.28515625 C27.56742188 20.30480469 27.59578125 21.32445313 27.625 22.375 C25.56577598 24.43422402 21.40791876 23.78927579 18.5625 23.9375 C17.42458008 24.00227539 17.42458008 24.00227539 16.26367188 24.06835938 C14.38434562 24.17473633 12.50469756 24.27539934 10.625 24.375 C10.625 25.695 10.625 27.015 10.625 28.375 C7.20405758 30.65562828 5.94312778 30.59425007 1.9375 30.5 C0.44669922 30.47292969 0.44669922 30.47292969 -1.07421875 30.4453125 C-1.83347656 30.42210937 -2.59273437 30.39890625 -3.375 30.375 C-4.035 28.725 -4.695 27.075 -5.375 25.375 C-11.315 25.375 -17.255 25.375 -23.375 25.375 C-23.375 23.725 -23.375 22.075 -23.375 20.375 C-21.66774992 19.89198797 -19.95914026 19.41378042 -18.25 18.9375 C-17.29867187 18.67066406 -16.34734375 18.40382813 -15.3671875 18.12890625 C-12.38223889 17.3768239 -9.41667044 16.83982501 -6.375 16.375 C-6.39820313 15.38757813 -6.42140625 14.40015625 -6.4453125 13.3828125 C-6.46335938 12.10148437 -6.48140625 10.82015625 -6.5 9.5 C-6.52320313 8.22382812 -6.54640625 6.94765625 -6.5703125 5.6328125 C-6.27467917 0.7016486 -4.55122805 0.07560179 0 0 Z " fill="#31323C" transform="translate(182.375,105.625)"/>
<path d="M0 0 C6.15234375 -0.09765625 6.15234375 -0.09765625 8 0 C11.45837285 3.45837285 10.0625 14.09076106 10.0625 18.6875 C10.04674879 20.45838583 10.02781263 22.22926253 10 24 C7.69 24 5.38 24 3 24 C2.67 22.35 2.34 20.7 2 19 C-13.18 19 -28.36 19 -44 19 C-44 17.68 -44 16.36 -44 15 C-34.66518304 12.27873914 -25.3328206 9.74277855 -15.8125 7.75 C-15.03608154 7.58725586 -14.25966309 7.42451172 -13.4597168 7.25683594 C-8.98759756 6.34370354 -4.52485402 5.59931841 0 5 C0 3.35 0 1.7 0 0 Z " fill="#B5B5B6" transform="translate(196,31)"/>
<path d="M0 0 C4.75 1.875 4.75 1.875 7 3 C7 2.34 7 1.68 7 1 C8.65 1.33 10.3 1.66 12 2 C12.33 1.34 12.66 0.68 13 0 C13.8971875 1.423125 13.8971875 1.423125 14.8125 2.875 C16.81562526 6.13964197 16.81562526 6.13964197 20 8 C20 6.02 20 4.04 20 2 C23.12290635 2.48578543 25.99580359 2.9986012 29 4 C29 4.66 29 5.32 29 6 C29.66 6 30.32 6 31 6 C31 5.34 31 4.68 31 4 C35.44893116 3.89148948 39.60342791 4.34865599 44 5 C45.32 5 46.64 5 48 5 C48.33 3.68 48.66 2.36 49 1 C53.01719395 5.26066025 53.01719395 5.26066025 52.9375 8.6875 C52 11 52 11 49 13 C49 12.34 49 11.68 49 11 C45.37 11 41.74 11 38 11 C37.67 12.32 37.34 13.64 37 15 C36.34 15 35.68 15 35 15 C35 14.34 35 13.68 35 13 C32.525 12.01 32.525 12.01 30 11 C29.67 12.32 29.34 13.64 29 15 C28.34 14.67 27.68 14.34 27 14 C27 15.32 27 16.64 27 18 C25.35 18 23.7 18 22 18 C20.74335022 15.09399739 20 13.20395416 20 10 C19.34 10 18.68 10 18 10 C18 12.64 18 15.28 18 18 C16.02 18.99 16.02 18.99 14 20 C13.67 19.34 13.34 18.68 13 18 C12.67 18.66 12.34 19.32 12 20 C11.46375 19.79375 10.9275 19.5875 10.375 19.375 C7.16653804 18.86840074 5.00932924 19.88785658 2 21 C1.34 21 0.68 21 0 21 C-1.73955334 14.56986533 -2.24991456 8.65050424 -2 2 C-1.34 2 -0.68 2 0 2 C0 1.34 0 0.68 0 0 Z " fill="#6059B8" transform="translate(351,104)"/>
<path d="M0 0 C2.84550012 0.66010476 5.52325999 1.51724966 8.25 2.5625 C8.95640625 2.83191406 9.6628125 3.10132812 10.390625 3.37890625 C10.92171875 3.58386719 11.4528125 3.78882812 12 4 C12 4.66 12 5.32 12 6 C13.32 6.33 14.64 6.66 16 7 C16 7.66 16 8.32 16 9 C15.01 9 14.02 9 13 9 C13 10.32 13 11.64 13 13 C11.35 13 9.7 13 8 13 C8 14.32 8 15.64 8 17 C6.35 17.33 4.7 17.66 3 18 C2.34 16.35 1.68 14.7 1 13 C0.67 14.65 0.34 16.3 0 18 C-3.96 18.33 -7.92 18.66 -12 19 C-12.99 17.35 -13.98 15.7 -15 14 C-17.06700655 12.67206394 -17.06700655 12.67206394 -19 12 C-18.67 10.02 -18.34 8.04 -18 6 C-17.34 6 -16.68 6 -16 6 C-16 4.68 -16 3.36 -16 2 C-11.71 2 -7.42 2 -3 2 C-2.67 3.32 -2.34 4.64 -2 6 C-1.34 6 -0.68 6 0 6 C0 4.02 0 2.04 0 0 Z " fill="#645CBF" transform="translate(621,93)"/>
<path d="M0 0 C0.36738281 0.92039062 0.36738281 0.92039062 0.7421875 1.859375 C2.25052285 4.42635567 3.44256788 5.03857904 6.125 6.25 C6.84945312 6.58515625 7.57390625 6.9203125 8.3203125 7.265625 C8.87460937 7.50796875 9.42890625 7.7503125 10 8 C9.67 10.31 9.34 12.62 9 15 C7.68 15 6.36 15 5 15 C5 16.32 5 17.64 5 19 C2.69 19 0.38 19 -2 19 C-2 18.34 -2 17.68 -2 17 C-2.99 17 -3.98 17 -5 17 C-5.33 17.99 -5.66 18.98 -6 20 C-6 19.34 -6 18.68 -6 18 C-6.66 18 -7.32 18 -8 18 C-8.33 18.99 -8.66 19.98 -9 21 C-10.98 21.33 -12.96 21.66 -15 22 C-15.33 19.03 -15.66 16.06 -16 13 C-16.66 13 -17.32 13 -18 13 C-18.33 9.04 -18.66 5.08 -19 1 C-13.86425246 1.43523284 -10.22235233 1.80124824 -6 5 C-5.67 5.66 -5.34 6.32 -5 7 C-5.061875 6.21625 -5.12375 5.4325 -5.1875 4.625 C-5.125625 3.75875 -5.06375 2.8925 -5 2 C-2 0 -2 0 0 0 Z " fill="#635CBE" transform="translate(589,93)"/>
<path d="M0 0 C1.23556641 0.01740234 1.23556641 0.01740234 2.49609375 0.03515625 C3.32238281 0.04417969 4.14867187 0.05320312 5 0.0625 C5.63808594 0.07410156 6.27617187 0.08570312 6.93359375 0.09765625 C7.87579501 5.62474236 8.05475524 10.93523977 7.99609375 16.53515625 C7.99158203 17.36208984 7.98707031 18.18902344 7.98242188 19.04101562 C7.97075186 21.05992771 7.95282093 23.07880199 7.93359375 25.09765625 C5.29359375 25.09765625 2.65359375 25.09765625 -0.06640625 25.09765625 C-0.39640625 23.77765625 -0.72640625 22.45765625 -1.06640625 21.09765625 C-11.46140625 21.59265625 -11.46140625 21.59265625 -22.06640625 22.09765625 C-22.06640625 20.44765625 -22.06640625 18.79765625 -22.06640625 17.09765625 C-15.75010032 15.35602778 -9.4299267 13.65851976 -3.06640625 12.09765625 C-3.07800781 11.31519531 -3.08960938 10.53273438 -3.1015625 9.7265625 C-3.11058594 8.71464844 -3.11960938 7.70273438 -3.12890625 6.66015625 C-3.14050781 5.65082031 -3.15210938 4.64148438 -3.1640625 3.6015625 C-3.02917925 0.14315592 -3.02917925 0.14315592 0 0 Z " fill="#F0F4F8" transform="translate(181.06640625,108.90234375)"/>
<path d="M0 0 C2.1534724 0.22853176 4.29910428 0.53304406 6.4375 0.875 C7.61183594 1.05804688 8.78617187 1.24109375 9.99609375 1.4296875 C13 2 13 2 15 3 C15.125 10.625 15.125 10.625 14 14 C4.58997722 14.18451025 4.58997722 14.18451025 0 13 C0 13.66 0 14.32 0 15 C-1.65 15.66 -3.3 16.32 -5 17 C-5 16.34 -5 15.68 -5 15 C-7.47266765 15.34444881 -7.47266765 15.34444881 -10 16 C-10.33 16.66 -10.66 17.32 -11 18 C-11.33 12.39 -11.66 6.78 -12 1 C-10.205625 1.020625 -8.41125 1.04125 -6.5625 1.0625 C-4.70833878 1.0838122 -2.85287502 1.07226502 -1 1 C-0.67 0.67 -0.34 0.34 0 0 Z " fill="#615ABA" transform="translate(300,109)"/>
<path d="M0 0 C0.66 0 1.32 0 2 0 C2.66 0.99 3.32 1.98 4 3 C4.99 3.33 5.98 3.66 7 4 C7 3.01 7 2.02 7 1 C10.75 -0.125 10.75 -0.125 13 1 C13 1.66 13 2.32 13 3 C14.12148438 3.19916016 14.12148438 3.19916016 15.265625 3.40234375 C16.25046875 3.57894531 17.2353125 3.75554687 18.25 3.9375 C19.22453125 4.11152344 20.1990625 4.28554687 21.203125 4.46484375 C23.49721795 4.90379729 25.74291971 5.40348592 28 6 C28 5.01 28 4.02 28 3 C31.3 3 34.6 3 38 3 C38.495 5.475 38.495 5.475 39 8 C35.02454597 10.35582461 31.96703541 10.44258297 27.5 9.4375 C24.69129869 8.94597727 22.74918304 9.3312798 20 10 C19.34 10 18.68 10 18 10 C17.67 11.32 17.34 12.64 17 14 C16.34 14 15.68 14 15 14 C15 15.32 15 16.64 15 18 C14.34 18 13.68 18 13 18 C13 17.01 13 16.02 13 15 C12.484375 15.33 11.96875 15.66 11.4375 16 C8.21973488 17.32010877 5.4429472 17.13242105 2 17 C1.66151348 15.10507994 1.32943089 13.20901534 1 11.3125 C0.814375 10.25675781 0.62875 9.20101562 0.4375 8.11328125 C0.04931926 5.35095938 -0.08259976 2.78257957 0 0 Z " fill="#625ABB" transform="translate(479,100)"/>
<path d="M0 0 C0.99 0 1.98 0 3 0 C3.91657981 5.38490641 4.11138159 10.54230189 4 16 C2.10507254 16.19644384 0.20899097 16.38177288 -1.6875 16.5625 C-2.74324219 16.66691406 -3.79898438 16.77132812 -4.88671875 16.87890625 C-7.81535455 16.99281806 -10.15593606 16.6098083 -13 16 C-13.33 16.33 -13.66 16.66 -14 17 C-16.4375 17.25 -16.4375 17.25 -19 17 C-21.31332486 13.53001271 -21.33957563 12.07490752 -21 8 C-20.34 7.01 -19.68 6.02 -19 5 C-15.39408679 4.52553774 -13.10217621 5.16167336 -10 7 C-10 6.34 -10 5.68 -10 5 C-7.29120665 3.64560332 -4.99066732 3.93498549 -2 4 C-1.34 2.68 -0.68 1.36 0 0 Z " fill="#65666E" transform="translate(75,118)"/>
<path d="M0 0 C0.66 0 1.32 0 2 0 C2 0.66 2 1.32 2 2 C3.32 2 4.64 2 6 2 C6.66 2.66 7.32 3.32 8 4 C8.33 4 8.66 4 9 4 C9.08159574 8.16138263 8.98248524 11.9472484 8 16 C6.35 16.33 4.7 16.66 3 17 C3 16.01 3 15.02 3 14 C2.34 14 1.68 14 1 14 C1 15.32 1 16.64 1 18 C-0.98 17.67 -2.96 17.34 -5 17 C-5 17.66 -5 18.32 -5 19 C-6.65 19 -8.3 19 -10 19 C-12.10428384 13.87080814 -12.21755666 9.4389165 -12 4 C-4.57142857 2.71428571 -4.57142857 2.71428571 -1 4 C-0.67 2.68 -0.34 1.36 0 0 Z " fill="#645CBF" transform="translate(651,91)"/>
<path d="M0 0 C0.33 0.66 0.66 1.32 1 2 C2.65 2 4.3 2 6 2 C6.33 1.34 6.66 0.68 7 0 C10.68754757 0.49831724 12.60490662 1.10067643 15 4 C15.33 3.34 15.66 2.68 16 2 C18.59438751 3.29719375 18.95586118 4.32035169 20 7 C20.1953125 9.578125 20.1953125 9.578125 20.125 12.25 C20.10695313 13.14203125 20.08890625 14.0340625 20.0703125 14.953125 C20.04710937 15.62859375 20.02390625 16.3040625 20 17 C19.01 17 18.02 17 17 17 C16.67 16.34 16.34 15.68 16 15 C15.34 15 14.68 15 14 15 C14 15.66 14 16.32 14 17 C9.915021 17.54466387 6.1274515 18 2 18 C1.855625 16.865625 1.71125 15.73125 1.5625 14.5625 C1.38828522 11.19222799 1.38828522 11.19222799 0 10 C-0.07205511 8.31391034 -0.08386068 6.62499341 -0.0625 4.9375 C-0.05347656 4.01839844 -0.04445313 3.09929687 -0.03515625 2.15234375 C-0.02355469 1.44207031 -0.01195312 0.73179688 0 0 Z " fill="#625ABB" transform="translate(528,97)"/>
<path d="M0 0 C1.258125 -0.020625 2.51625 -0.04125 3.8125 -0.0625 C4.52019531 -0.07410156 5.22789062 -0.08570312 5.95703125 -0.09765625 C8 0 8 0 11 1 C11 1.99 11 2.98 11 4 C11.639375 4.103125 12.27875 4.20625 12.9375 4.3125 C13.618125 4.539375 14.29875 4.76625 15 5 C16.2077558 8.62326739 15.54311128 9.64146369 14 13 C13.01 13 12.02 13 11 13 C10.67 14.32 10.34 15.64 10 17 C9.34 16.67 8.68 16.34 8 16 C7.071875 16.2475 7.071875 16.2475 6.125 16.5 C3.69271502 17.07230235 2.36724682 16.67352629 0 16 C-0.19441368 13.7089095 -0.38033135 11.41709663 -0.5625 9.125 C-0.71912109 7.21074219 -0.71912109 7.21074219 -0.87890625 5.2578125 C-1 2 -1 2 0 0 Z " fill="#6159BA" transform="translate(460,101)"/>
<path d="M0 0 C6.15234375 -0.09765625 6.15234375 -0.09765625 8 0 C11.45837285 3.45837285 10.0625 14.09076106 10.0625 18.6875 C10.04674879 20.45838583 10.02781263 22.22926253 10 24 C7.66705225 24.04241723 5.33297433 24.04092937 3 24 C-0.24460067 20.75539933 0.04445106 12.11801142 -0.12890625 7.7578125 C-0.12554385 5.16876231 -0.0916768 2.58732288 0 0 Z " fill="#F0F1F2" transform="translate(196,31)"/>
<path d="M0 0 C2.84550012 0.66010476 5.52325999 1.51724966 8.25 2.5625 C8.95640625 2.83191406 9.6628125 3.10132812 10.390625 3.37890625 C10.92171875 3.58386719 11.4528125 3.78882812 12 4 C12 4.66 12 5.32 12 6 C13.32 6.33 14.64 6.66 16 7 C16 7.66 16 8.32 16 9 C15.01 9 14.02 9 13 9 C13 10.32 13 11.64 13 13 C11.35 13 9.7 13 8 13 C8 14.32 8 15.64 8 17 C6.35 17.33 4.7 17.66 3 18 C2.34 16.35 1.68 14.7 1 13 C0.67 14.65 0.34 16.3 0 18 C-4.95 18.495 -4.95 18.495 -10 19 C-10 17.68 -10 16.36 -10 15 C-4.25 14.875 -4.25 14.875 -2 16 C-2 12.7 -2 9.4 -2 6 C-1.34 6 -0.68 6 0 6 C0 4.02 0 2.04 0 0 Z " fill="#615ABA" transform="translate(621,93)"/>
<path d="M0 0 C0.60585938 0.3403125 1.21171875 0.680625 1.8359375 1.03125 C4.6064185 2.27146532 6.09554264 1.61146471 9 1 C9.66 1.66 10.32 2.32 11 3 C12.32 3 13.64 3 15 3 C16.49084832 7.47254497 16.49084832 11.52745503 15 16 C14.34 16 13.68 16 13 16 C12.67 14.68 12.34 13.36 12 12 C11.34 12 10.68 12 10 12 C9.67 13.65 9.34 15.3 9 17 C7.35 17.33 5.7 17.66 4 18 C4 17.34 4 16.68 4 16 C3.01 15.67 2.02 15.34 1 15 C-0.09506492 11.71480525 -0.09960608 9.26336585 -0.0625 5.8125 C-0.05347656 4.72582031 -0.04445313 3.63914062 -0.03515625 2.51953125 C-0.02355469 1.68808594 -0.01195312 0.85664062 0 0 Z " fill="#6159B9" transform="translate(435,102)"/>
<path d="M0 0 C0.99 0 1.98 0 3 0 C3 5.28 3 10.56 3 16 C-0.63 16 -4.26 16 -8 16 C-8.66 14.68 -9.32 13.36 -10 12 C-7.03 12.495 -7.03 12.495 -4 13 C-4.8971875 12.566875 -4.8971875 12.566875 -5.8125 12.125 C-8 11 -8 11 -11 9 C-11 11.31 -11 13.62 -11 16 C-12.27875 16.061875 -13.5575 16.12375 -14.875 16.1875 C-15.95394531 16.23970703 -15.95394531 16.23970703 -17.0546875 16.29296875 C-17.69664063 16.19628906 -18.33859375 16.09960938 -19 16 C-21.13586678 12.79619983 -21.23132175 11.98060033 -21.125 8.3125 C-21.10695312 7.50425781 -21.08890625 6.69601563 -21.0703125 5.86328125 C-21.04710937 5.24839844 -21.02390625 4.63351563 -21 4 C-20.01 4 -19.02 4 -18 4 C-18 6.97 -18 9.94 -18 13 C-16.68 13 -15.36 13 -14 13 C-14 10.03 -14 7.06 -14 4 C-10.37 4 -6.74 4 -3 4 C-2.67 4.99 -2.34 5.98 -2 7 C-3.65 7 -5.3 7 -7 7 C-4.01121121 9.23543548 -4.01121121 9.23543548 0 10 C0 6.7 0 3.4 0 0 Z " fill="#7E7E88" transform="translate(62,33)"/>
<path d="M0 0 C0.99 0 1.98 0 3 0 C3 0.66 3 1.32 3 2 C6.465 1.505 6.465 1.505 10 1 C10 1.66 10 2.32 10 3 C11.65 3.33 13.3 3.66 15 4 C15.28571429 11.42857143 15.28571429 11.42857143 13 15 C12.67 14.34 12.34 13.68 12 13 C10.10466658 12.53476937 10.10466658 12.53476937 7.9375 12.375 C6.638125 12.25125 5.33875 12.1275 4 12 C4 14.31 4 16.62 4 19 C1.85182772 15.77774159 1.46349899 13.84103714 0.875 10.0625 C0.70742188 9.02222656 0.53984375 7.98195313 0.3671875 6.91015625 C0 4 0 4 0 0 Z " fill="#635BBD" transform="translate(322,107)"/>
<path d="M0 0 C0 0.99 0 1.98 0 3 C0.804375 3.309375 1.60875 3.61875 2.4375 3.9375 C5 5 5 5 6 6 C6.07179964 7.51928038 6.08392007 9.04167482 6.0625 10.5625 C6.05347656 11.38878906 6.04445313 12.21507813 6.03515625 13.06640625 C6.02355469 13.70449219 6.01195312 14.34257813 6 15 C5.01 15.33 4.02 15.66 3 16 C2.01 15.34 1.02 14.68 0 14 C0 14.66 0 15.32 0 16 C-1.32 16.33 -2.64 16.66 -4 17 C-6.68219822 11.63560356 -7.3152595 7.98993047 -7 2 C-2.25 0 -2.25 0 0 0 Z " fill="#6058B7" transform="translate(558,96)"/>
<path d="M0 0 C1.17369141 -0.02513672 1.17369141 -0.02513672 2.37109375 -0.05078125 C5.10831227 0.40298225 5.94883027 1.07741708 7.5625 3.3125 C9.13259541 9.19736143 8.65304494 15.80888269 8.6875 21.875 C8.69225342 22.59002686 8.69700684 23.30505371 8.7019043 24.04174805 C8.6851433 29.1898567 8.6851433 29.1898567 7.5625 30.3125 C5.70962498 30.38476502 3.85416122 30.3963122 2 30.375 C0.98808594 30.36597656 -0.02382812 30.35695312 -1.06640625 30.34765625 C-2.24009766 30.33025391 -2.24009766 30.33025391 -3.4375 30.3125 C-4.0975 28.6625 -4.7575 27.0125 -5.4375 25.3125 C-9.7275 25.3125 -14.0175 25.3125 -18.4375 25.3125 C-18.4375 24.9825 -18.4375 24.6525 -18.4375 24.3125 C-13.1575 24.3125 -7.8775 24.3125 -2.4375 24.3125 C-2.1075 25.3025 -1.7775 26.2925 -1.4375 27.3125 C1.2025 27.6425 3.8425 27.9725 6.5625 28.3125 C6.0675 15.9375 6.0675 15.9375 5.5625 3.3125 C1.1075 3.8075 1.1075 3.8075 -3.4375 4.3125 C-3.7675 7.9425 -4.0975 11.5725 -4.4375 15.3125 C-5.0975 15.3125 -5.7575 15.3125 -6.4375 15.3125 C-6.49136629 13.18777424 -6.53023071 11.06266348 -6.5625 8.9375 C-6.58570313 7.75414063 -6.60890625 6.57078125 -6.6328125 5.3515625 C-6.32111821 0.5015993 -4.41475581 0.02174757 0 0 Z " fill="#406789" transform="translate(182.4375,105.6875)"/>
<path d="M0 0 C0.33 0 0.66 0 1 0 C1.88255428 6.7294764 2.08592955 13.21156583 2 20 C-8.395 20.495 -8.395 20.495 -19 21 C-19 19.35 -19 17.7 -19 16 C-12.68369407 14.25837153 -6.36352045 12.56086351 0 11 C0 7.37 0 3.74 0 0 Z " fill="#8DA1B3" transform="translate(178,110)"/>
<path d="M0 0 C4.85963179 0.60745397 8.7405518 2.72758967 13 5 C12.67 7.31 12.34 9.62 12 12 C10.68 12 9.36 12 8 12 C8 13.32 8 14.64 8 16 C6.02 16 4.04 16 2 16 C0.40837921 10.42932723 -0.20674944 5.78898419 0 0 Z " fill="#625ABB" transform="translate(586,96)"/>
<path d="M0 0 C2.475 0.99 2.475 0.99 5 2 C5 1.34 5 0.68 5 0 C5.66 0 6.32 0 7 0 C9.59227518 4.86051596 9.18689553 9.65271133 9 15 C7.02 15.33 5.04 15.66 3 16 C2.54625 15.34 2.0925 14.68 1.625 14 C1.08875 13.34 0.5525 12.68 0 12 C-0.66 12 -1.32 12 -2 12 C-2.33 8.7 -2.66 5.4 -3 2 C-2.34 2 -1.68 2 -1 2 C-0.67 1.34 -0.34 0.68 0 0 Z " fill="#5F58B6" transform="translate(409,104)"/>
<path d="M0 0 C0.33 1.32 0.66 2.64 1 4 C2.65 4 4.3 4 6 4 C6 3.34 6 2.68 6 2 C6.66 2 7.32 2 8 2 C8 2.99 8 3.98 8 5 C8.99 5.33 9.98 5.66 11 6 C11 9.96 11 13.92 11 18 C10.67 17.34 10.34 16.68 10 16 C7.97536745 15.34786708 7.97536745 15.34786708 6 15 C6 15.66 6 16.32 6 17 C5.01 17 4.02 17 3 17 C3 15.68 3 14.36 3 13 C2.34 13 1.68 13 1 13 C0.67 8.71 0.34 4.42 0 0 Z " fill="#5F58B6" transform="translate(419,101)"/>
<path d="M0 0 C4.05829793 -0.56365249 7.18973665 0.70288907 11 2 C12.32 2 13.64 2 15 2 C15 2.66 15 3.32 15 4 C13.35 4.33 11.7 4.66 10 5 C9.9175 5.78375 9.835 6.5675 9.75 7.375 C9 10 9 10 7.25 11.3125 C4.63893232 12.11032624 2.71255183 12.35691471 0 12 C-2.31332486 8.53001271 -2.33957563 7.07490752 -2 3 C-1.34 2.01 -0.68 1.02 0 0 Z " fill="#2C2C35" transform="translate(56,123)"/>
<path d="M0 0 C1.32 0 2.64 0 4 0 C4.99 2.97 5.98 5.94 7 9 C8.32 6.03 9.64 3.06 11 0 C12.32 0.33 13.64 0.66 15 1 C15 5.62 15 10.24 15 15 C14.34 15 13.68 15 13 15 C12.67 12.36 12.34 9.72 12 7 C11.01 9.64 10.02 12.28 9 15 C6 14 6 14 5.05078125 12.15234375 C4.3671875 10.1015625 3.68359375 8.05078125 3 6 C2.67 8.97 2.34 11.94 2 15 C1.67 15 1.34 15 1 15 C-0.03590199 9.94997778 -0.10251672 5.12583611 0 0 Z " fill="#9797A0" transform="translate(24,33)"/>
<path d="M0 0 C3.3 0 6.6 0 10 0 C10.33 1.65 10.66 3.3 11 5 C7.02454597 7.35582461 3.96703541 7.44258297 -0.5 6.4375 C-3.29841038 5.94777818 -5.24976031 6.40535358 -8 7 C-10.7839183 5.60804085 -10.97898997 3.84424221 -12 1 C-3.42857143 2 -3.42857143 2 0 3 C0 2.01 0 1.02 0 0 Z " fill="#4C468D" transform="translate(507,103)"/>
<path d="M0 0 C0.33 0.66 0.66 1.32 1 2 C4.02934491 2.65772428 4.02934491 2.65772428 7 3 C7 2.34 7 1.68 7 1 C16.56944444 -0.44444444 16.56944444 -0.44444444 21 2 C20.01 2.33 19.02 2.66 18 3 C17.67 3.99 17.34 4.98 17 6 C16.34 5.67 15.68 5.34 15 5 C12.90178785 5.39938767 12.90178785 5.39938767 11 6 C11 4.68 11 3.36 11 2 C10.01 2 9.02 2 8 2 C8 3.65 8 5.3 8 7 C7.34 7 6.68 7 6 7 C6 6.01 6 5.02 6 4 C5.2575 4.165 4.515 4.33 3.75 4.5 C1 5 1 5 -3 5 C-3.66 5.66 -4.32 6.32 -5 7 C-5 5.35 -5 3.7 -5 2 C-9.455 2.495 -9.455 2.495 -14 3 C-14.33 2.34 -14.66 1.68 -15 1 C-13.44033408 0.63355422 -11.87707349 0.28239138 -10.3125 -0.0625 C-9.44238281 -0.25972656 -8.57226562 -0.45695312 -7.67578125 -0.66015625 C-4.8024148 -1.02509476 -2.7633541 -0.84691238 0 0 Z " fill="#1A995C" transform="translate(464,51)"/>
<path d="M0 0 C3.72301503 -0.47730962 4.79191085 -0.1387261 8 2 C8.3125 5.5 8.3125 5.5 8 9 C6 11 6 11 3 11.1875 C0 11 0 11 -2 10 C-2.25 3.375 -2.25 3.375 0 0 Z " fill="#A0A0A9" transform="translate(45,124)"/>
<path d="M0 0 C2.64 0.33 5.28 0.66 8 1 C8.08159574 5.16138263 7.98248524 8.9472484 7 13 C5.35 13.33 3.7 13.66 2 14 C1.34 9.38 0.68 4.76 0 0 Z " fill="#635BBD" transform="translate(652,94)"/>
<path d="M0 0 C1.8871875 0.061875 1.8871875 0.061875 3.8125 0.125 C6.18840142 3.82916126 6.01750286 7.05484573 5.9375 11.375 C5.91945312 12.63828125 5.90140625 13.9015625 5.8828125 15.203125 C5.85960937 16.16734375 5.83640625 17.1315625 5.8125 18.125 C5.4825 18.125 5.1525 18.125 4.8125 18.125 C4.1525 13.505 3.4925 8.885 2.8125 4.125 C0.8325 4.125 -1.1475 4.125 -3.1875 4.125 C-3.5175 6.765 -3.8475 9.405 -4.1875 12.125 C-7.1875 10.125 -7.1875 10.125 -7.5859375 8.25 C-7.57820312 7.54875 -7.57046875 6.8475 -7.5625 6.125 C-7.57023438 5.42375 -7.57796875 4.7225 -7.5859375 4 C-6.73388074 -0.00967888 -3.44373259 -0.11290927 0 0 Z " fill="#212631" transform="translate(191.1875,184.875)"/>
<path d="M0 0 C0 1.98 0 3.96 0 6 C-5.61 6 -11.22 6 -17 6 C-11.48095804 0.48095804 -7.67974363 -0.30718975 0 0 Z " fill="#B8B8B9" transform="translate(177,123)"/>
<path d="M0 0 C2.64 0 5.28 0 8 0 C8 0.66 8 1.32 8 2 C12.65052872 2.26932521 12.65052872 2.26932521 17 1 C17 2.32 17 3.64 17 5 C13.86556381 6.12839703 11.51288005 5.81059132 8.28125 5.2578125 C3.22058114 4.68588759 -1.91433902 4.93117151 -7 5 C-7.33 4.01 -7.66 3.02 -8 2 C-6.35 1.67 -4.7 1.34 -3 1 C-3 1.66 -3 2.32 -3 3 C-2.34 3 -1.68 3 -1 3 C-0.67 2.01 -0.34 1.02 0 0 Z " fill="#1A985B" transform="translate(617,36)"/>
<path d="M0 0 C0.99 0 1.98 0 3 0 C3.33 0.66 3.66 1.32 4 2 C5.32 1.67 6.64 1.34 8 1 C8.33 1.66 8.66 2.32 9 3 C10.32 3 11.64 3 13 3 C13.33 2.34 13.66 1.68 14 1 C15.32 1 16.64 1 18 1 C17.67 1.99 17.34 2.98 17 4 C16.65772583 5.33106622 16.32248257 6.66400079 16 8 C15.34 8 14.68 8 14 8 C14 7.34 14 6.68 14 6 C13.21753906 6.01160156 12.43507813 6.02320313 11.62890625 6.03515625 C10.61699219 6.04417969 9.60507812 6.05320312 8.5625 6.0625 C7.55316406 6.07410156 6.54382813 6.08570313 5.50390625 6.09765625 C3 6 3 6 2 5 C1.67 5.66 1.34 6.32 1 7 C0.34 7 -0.32 7 -1 7 C-1.625 5.1875 -1.625 5.1875 -2 3 C-1.34 2.01 -0.68 1.02 0 0 Z " fill="#18A361" transform="translate(491,33)"/>
<path d="M0 0 C0 3.63 0 7.26 0 11 C-1.65 11.33 -3.3 11.66 -5 12 C-4.01 10.68 -3.02 9.36 -2 8 C-4.31 7.67 -6.62 7.34 -9 7 C-9 5.35 -9 3.7 -9 2 C-2.25 0 -2.25 0 0 0 Z " fill="#212129" transform="translate(79,204)"/>
<path d="M0 0 C0.66 0 1.32 0 2 0 C2.67408308 1.26691507 3.33900497 2.53870749 4 3.8125 C4.556875 4.87404297 4.556875 4.87404297 5.125 5.95703125 C6 8 6 8 6 11 C6.66 11 7.32 11 8 11 C8.144375 9.9275 8.28875 8.855 8.4375 7.75 C8.83749442 5.08337051 9.27591924 2.58600271 10 0 C10.99 0.33 11.98 0.66 13 1 C12.54705135 2.75140143 12.08741252 4.50107344 11.625 6.25 C11.36976562 7.22453125 11.11453125 8.1990625 10.8515625 9.203125 C10.10401491 11.65837303 9.22876183 13.75617405 8 16 C7.34 16 6.68 16 6 16 C4.99303432 13.89915791 3.9946411 11.79420511 3 9.6875 C2.443125 8.51574219 1.88625 7.34398438 1.3125 6.13671875 C0 3 0 3 0 0 Z " fill="#A2A2AB" transform="translate(28,120)"/>
<path d="M0 0 C2 2 2 2 2.1953125 3.9453125 C2.13020833 5.96354167 2.06510417 7.98177083 2 10 C1.34 10 0.68 10 0 10 C0 8.68 0 7.36 0 6 C-1.32 6.33 -2.64 6.66 -4 7 C-3.67 8.32 -3.34 9.64 -3 11 C-4.32 11 -5.64 11 -7 11 C-7.04254356 9.00045254 -7.04080783 6.99958364 -7 5 C-6 4 -6 4 -3.4375 3.9375 C-2.2309375 3.9684375 -2.2309375 3.9684375 -1 4 C-1 3.34 -1 2.68 -1 2 C-2.98 2.33 -4.96 2.66 -7 3 C-7 2.01 -7 1.02 -7 0 C-4.29393021 -1.35303489 -2.8671629 -0.7884698 0 0 Z " fill="#9D9DA7" transform="translate(72,123)"/>
<path d="M0 0 C1.17369141 -0.02513672 1.17369141 -0.02513672 2.37109375 -0.05078125 C5.06850935 0.3963839 5.94577233 1.13970039 7.5625 3.3125 C7.75 6 7.75 6 7.5625 8.3125 C5.5625 5.3125 5.5625 5.3125 5.5625 3.3125 C1.1075 3.8075 1.1075 3.8075 -3.4375 4.3125 C-3.7675 7.9425 -4.0975 11.5725 -4.4375 15.3125 C-5.0975 15.3125 -5.7575 15.3125 -6.4375 15.3125 C-6.49136629 13.18777424 -6.53023071 11.06266348 -6.5625 8.9375 C-6.58570313 7.75414063 -6.60890625 6.57078125 -6.6328125 5.3515625 C-6.32111821 0.5015993 -4.41475581 0.02174757 0 0 Z " fill="#2F5271" transform="translate(182.4375,105.6875)"/>
<path d="M0 0 C2.31 0 4.62 0 7 0 C6.67 1.32 6.34 2.64 6 4 C6 3.34 6 2.68 6 2 C4.68 2 3.36 2 2 2 C1.76667969 2.64195313 1.53335938 3.28390625 1.29296875 3.9453125 C0 6 0 6 -2.13671875 6.6796875 C-7.63594504 7.10076149 -11.8102396 6.91795493 -17 5 C-16.67 4.34 -16.34 3.68 -16 3 C-12.39039917 1.89706641 -9.60960083 1.89706641 -6 3 C-5.67 3.66 -5.34 4.32 -5 5 C-3.68 5 -2.36 5 -1 5 C-0.67 3.35 -0.34 1.7 0 0 Z " fill="#15AB64" transform="translate(586,35)"/>
<path d="M0 0 C1.32 0.33 2.64 0.66 4 1 C3.01 1.495 3.01 1.495 2 2 C2.33 5.96 2.66 9.92 3 14 C2.34 13.67 1.68 13.34 1 13 C0.67 14.65 0.34 16.3 0 18 C-4.95 18.495 -4.95 18.495 -10 19 C-10 17.68 -10 16.36 -10 15 C-4.25 14.875 -4.25 14.875 -2 16 C-2 12.7 -2 9.4 -2 6 C-1.34 6 -0.68 6 0 6 C0 4.02 0 2.04 0 0 Z " fill="#484385" transform="translate(621,93)"/>
<path d="M0 0 C0.99 0 1.98 0 3 0 C3 5.28 3 10.56 3 16 C1.02 16 -0.96 16 -3 16 C-2.67 14.02 -2.34 12.04 -2 10 C-1.34 10 -0.68 10 0 10 C0 6.7 0 3.4 0 0 Z " fill="#6B6B75" transform="translate(62,33)"/>
<path d="M0 0 C0.78375 0.04125 1.5675 0.0825 2.375 0.125 C2.705 1.445 3.035 2.765 3.375 4.125 C0.405 3.63 0.405 3.63 -2.625 3.125 C-2.295 4.775 -1.965 6.425 -1.625 8.125 C0.355 8.125 2.335 8.125 4.375 8.125 C4.045 9.445 3.715 10.765 3.375 12.125 C0.67186424 12.34417317 -1.06458382 12.45351983 -3.4375 11.0625 C-5.271921 8.06949731 -4.93607576 5.54683337 -4.625 2.125 C-2.625 0.125 -2.625 0.125 0 0 Z " fill="#A0A1AA" transform="translate(71.625,36.875)"/>
<path d="M0 0 C2.5 -0.375 2.5 -0.375 5 0 C5.66 0.99 6.32 1.98 7 3 C5.02 3 3.04 3 1 3 C0.67 4.98 0.34 6.96 0 9 C2.64 8.67 5.28 8.34 8 8 C6.8125 10 6.8125 10 5 12 C2.4375 12.4375 2.4375 12.4375 0 12 C-2.31332486 8.53001271 -2.33957563 7.07490752 -2 3 C-1.34 2.01 -0.68 1.02 0 0 Z " fill="#A2A3AC" transform="translate(56,123)"/>
<path d="M0 0 C0.66 0 1.32 0 2 0 C2 0.66 2 1.32 2 2 C2.65355469 1.67257813 3.30710937 1.34515625 3.98046875 1.0078125 C7.7948756 -0.2653013 11.34480837 -0.21718944 15.3125 -0.125 C16.05306641 -0.11597656 16.79363281 -0.10695312 17.55664062 -0.09765625 C19.37123467 -0.07424213 21.18566071 -0.03837615 23 0 C23 0.66 23 1.32 23 2 C17.72 2 12.44 2 7 2 C7 2.99 7 3.98 7 5 C4 6 4 6 1 5 C0.67 3.35 0.34 1.7 0 0 Z " fill="#13B469" transform="translate(515,51)"/>
<path d="M0 0 C2.31 0 4.62 0 7 0 C7 0.99 7 1.98 7 3 C7.99 3 8.98 3 10 3 C10 2.34 10 1.68 10 1 C10.66 1 11.32 1 12 1 C12 1.99 12 2.98 12 4 C8.26513121 4.5745952 4.78706732 5 1 5 C-0.41904676 5.14501208 -1.83607595 5.31147679 -3.25 5.5 C-4.4875 5.665 -5.725 5.83 -7 6 C-6.67 5.01 -6.34 4.02 -6 3 C-5.195625 2.87625 -4.39125 2.7525 -3.5625 2.625 C-2.716875 2.41875 -1.87125 2.2125 -1 2 C-0.67 1.34 -0.34 0.68 0 0 Z " fill="#14AE66" transform="translate(546,35)"/>
<path d="M0 0 C7.75 -0.125 7.75 -0.125 10 1 C9.67 2.32 9.34 3.64 9 5 C2.84765625 5.87890625 2.84765625 5.87890625 1 6 C0 5 0 5 -0.0625 2.4375 C-0.041875 1.633125 -0.02125 0.82875 0 0 Z " fill="#5D56B1" transform="translate(508,104)"/>
<path d="M0 0 C0.33 0.66 0.66 1.32 1 2 C2.65 2 4.3 2 6 2 C5.67 2.66 5.34 3.32 5 4 C1.04 4 -2.92 4 -7 4 C-7.33 4.99 -7.66 5.98 -8 7 C-8.99 6.67 -9.98 6.34 -11 6 C-11.33 5.34 -11.66 4.68 -12 4 C-13.98 4.33 -15.96 4.66 -18 5 C-17.67 3.68 -17.34 2.36 -17 1 C-15.80375 1.185625 -14.6075 1.37125 -13.375 1.5625 C-9.69935417 2.03740645 -6.65152953 1.67935433 -3 1 C-2.01 1.33 -1.02 1.66 0 2 C0 1.34 0 0.68 0 0 Z " fill="#14B168" transform="translate(243,49)"/>
<path d="M0 0 C0.99 0 1.98 0 3 0 C3 2.97 3 5.94 3 9 C4.65 9 6.3 9 8 9 C8 6.36 8 3.72 8 1 C8.33 1 8.66 1 9 1 C9 4.3 9 7.6 9 11 C5.625 11.125 5.625 11.125 2 11 C0 9 0 9 -0.1953125 6.8359375 C-0.17210937 6.02382813 -0.14890625 5.21171875 -0.125 4.375 C-0.10695312 3.55773438 -0.08890625 2.74046875 -0.0703125 1.8984375 C-0.04710937 1.27195313 -0.02390625 0.64546875 0 0 Z " fill="#9C9CA5" transform="translate(41,37)"/>
<path d="M0 0 C6.75 -0.125 6.75 -0.125 9 1 C10.70363822 1.22622081 12.41328701 1.40888473 14.125 1.5625 C15.03507813 1.64628906 15.94515625 1.73007812 16.8828125 1.81640625 C17.58148437 1.87699219 18.28015625 1.93757813 19 2 C18.67 2.66 18.34 3.32 18 4 C17.14277344 3.91621094 16.28554688 3.83242188 15.40234375 3.74609375 C8.12436339 2.98479109 8.12436339 2.98479109 0.875 3.5625 C-2 4 -2 4 -5 2 C-3.35 2 -1.7 2 0 2 C0 1.34 0 0.68 0 0 Z " fill="#12B96B" transform="translate(560,51)"/>
<path d="M0 0 C0.33 0.99 0.66 1.98 1 3 C0.01 4.485 0.01 4.485 -1 6 C-1 5.01 -1 4.02 -1 3 C-1.66 3 -2.32 3 -3 3 C-2.34 8.28 -1.68 13.56 -1 19 C-1.33 18.34 -1.66 17.68 -2 17 C-2.99 17 -3.98 17 -5 17 C-5.08076963 14.54101345 -5.14037143 12.08466258 -5.1875 9.625 C-5.21263672 8.92632812 -5.23777344 8.22765625 -5.26367188 7.5078125 C-5.29296875 5.4765625 -5.29296875 5.4765625 -5 2 C-2 0 -2 0 0 0 Z " fill="#4F4A95" transform="translate(589,93)"/>
<path d="M0 0 C2.97 0.99 5.94 1.98 9 3 C9 2.34 9 1.68 9 1 C9.99 1.33 10.98 1.66 12 2 C11.01 2.495 11.01 2.495 10 3 C9.34786708 5.02463255 9.34786708 5.02463255 9 7 C9 6.34 9 5.68 9 5 C7.39125 5.495 7.39125 5.495 5.75 6 C2 7 2 7 -2 7 C-1.34 4.69 -0.68 2.38 0 0 Z " fill="#1B965A" transform="translate(541,50)"/>
<path d="M0 0 C1.65 0.33 3.3 0.66 5 1 C5 1.66 5 2.32 5 3 C6.32 2.67 7.64 2.34 9 2 C9.33 3.32 9.66 4.64 10 6 C11.32 5.67 12.64 5.34 14 5 C13.67 5.99 13.34 6.98 13 8 C11.37433394 7.52309796 9.74948689 7.04340334 8.125 6.5625 C7.22007812 6.29566406 6.31515625 6.02882813 5.3828125 5.75390625 C3 5 3 5 1 4 C-0.99551782 3.64080679 -2.99548879 3.30503431 -5 3 C-5 2.67 -5 2.34 -5 2 C-3.35 2 -1.7 2 0 2 C0 1.34 0 0.68 0 0 Z " fill="#16A763" transform="translate(325,48)"/>
<path d="M0 0 C5.77807024 -0.2358396 10.51324804 0.13216954 16 2 C16 1.34 16 0.68 16 0 C19.3 0.33 22.6 0.66 26 1 C26 1.33 26 1.66 26 2 C25.30132813 2.13277344 24.60265625 2.26554687 23.8828125 2.40234375 C22.97273437 2.57894531 22.06265625 2.75554688 21.125 2.9375 C20.22007812 3.11152344 19.31515625 3.28554688 18.3828125 3.46484375 C16.00043683 3.89963701 16.00043683 3.89963701 14 5 C14 4.34 14 3.68 14 3 C7.07 2.505 7.07 2.505 0 2 C0 1.34 0 0.68 0 0 Z " fill="#10BE6E" transform="translate(579,51)"/>
<path d="M0 0 C0 0.66 0 1.32 0 2 C0.66 2.33 1.32 2.66 2 3 C0.68 3.33 -0.64 3.66 -2 4 C-2 4.99 -2 5.98 -2 7 C-2.763125 6.67 -3.52625 6.34 -4.3125 6 C-6.99069135 4.82563314 -6.99069135 4.82563314 -10 5 C-10.66 4.67 -11.32 4.34 -12 4 C-12 3.34 -12 2.68 -12 2 C-10.68 2.33 -9.36 2.66 -8 3 C-8 2.34 -8 1.68 -8 1 C-5.10765685 0.17361624 -3.11257569 0 0 0 Z " fill="#199C5E" transform="translate(440,50)"/>
<path d="M0 0 C1.32 0 2.64 0 4 0 C6.42857143 6.28571429 6.42857143 6.28571429 5 10 C4.34 8.68 3.68 7.36 3 6 C2.67 8.97 2.34 11.94 2 15 C1.67 15 1.34 15 1 15 C-0.03590199 9.94997778 -0.10251672 5.12583611 0 0 Z " fill="#AAAAB3" transform="translate(24,33)"/>
<path d="M0 0 C2.00720923 0.28674418 4.0085944 0.61866701 6 1 C4.68799596 2.35432675 3.35368596 3.68733482 2 5 C1.67 5 1.34 5 1 5 C0.67 5.99 0.34 6.98 0 8 C-0.66 8 -1.32 8 -2 8 C-2 6.68 -2 5.36 -2 4 C-2.99 4 -3.98 4 -5 4 C-5.33 4.99 -5.66 5.98 -6 7 C-7.24546405 4.50907189 -6.7767578 3.58919267 -6 1 C-4.7934375 1.0309375 -4.7934375 1.0309375 -3.5625 1.0625 C-1.06645115 1.29633621 -1.06645115 1.29633621 0 0 Z " fill="#14AF67" transform="translate(402,49)"/>
<path d="M0 0 C-0.38497994 2.23288365 -0.89493337 3.83656302 -2.125 5.75 C-4.99745901 7.66497267 -7.64483583 7.18991495 -11 7 C-11.33 7.99 -11.66 8.98 -12 10 C-12.33 9.34 -12.66 8.68 -13 8 C-12.67 7.34 -12.34 6.68 -12 6 C-11.01 6 -10.02 6 -9 6 C-9 4.68 -9 3.36 -9 2 C-2.25 0 -2.25 0 0 0 Z " fill="#199D5E" transform="translate(337,30)"/>
<path d="M0 0 C0.33 0.66 0.66 1.32 1 2 C0.67 2.99 0.34 3.98 0 5 C-3.58885375 5.81564858 -6.94585805 6.16216156 -10.625 6.1875 C-12.03652344 6.20876953 -12.03652344 6.20876953 -13.4765625 6.23046875 C-16 6 -16 6 -19 4 C-17.08416353 3.8041991 -15.16727461 3.61867786 -13.25 3.4375 C-11.64898437 3.28087891 -11.64898437 3.28087891 -10.015625 3.12109375 C-7.35858796 3.01439926 -5.50039428 3.18069605 -3 4 C-3 3.01 -3 2.02 -3 1 C-2.01 0.67 -1.02 0.34 0 0 Z " fill="#0EC772" transform="translate(488,34)"/>
<path d="M0 0 C0.33 1.65 0.66 3.3 1 5 C1.99 5 2.98 5 4 5 C4 5.66 4 6.32 4 7 C-0.62 7 -5.24 7 -10 7 C-9.01 6.67 -8.02 6.34 -7 6 C-7 5.01 -7 4.02 -7 3 C-6.01 3 -5.02 3 -4 3 C-4 2.34 -4 1.68 -4 1 C-1 0 -1 0 0 0 Z " fill="#1A9A5C" transform="translate(509,50)"/>
<path d="M0 0 C0.33 0 0.66 0 1 0 C1 1.65 1 3.3 1 5 C1.66 5 2.32 5 3 5 C3 4.34 3 3.68 3 3 C3.66 3 4.32 3 5 3 C5 2.34 5 1.68 5 1 C8.37817425 0.15545644 10.67465243 -0.10844919 14 1 C13.67 1.99 13.34 2.98 13 4 C12.443125 3.814375 11.88625 3.62875 11.3125 3.4375 C8.600867 2.92448835 6.65628961 3.3359276 4 4 C4 4.66 4 5.32 4 6 C1.36 6.33 -1.28 6.66 -4 7 C-3.67 6.01 -3.34 5.02 -3 4 C-2.01 4 -1.02 4 0 4 C0 2.68 0 1.36 0 0 Z " fill="#12B76A" transform="translate(374,33)"/>
<path d="M0 0 C0.66 0.33 1.32 0.66 2 1 C2.33 1.99 2.66 2.98 3 4 C3.99 4.66 4.98 5.32 6 6 C4.35 6 2.7 6 1 6 C1 8.31 1 10.62 1 13 C0.01 13.495 0.01 13.495 -1 14 C-2.49821059 10.62902617 -3 8.79557881 -3 5 C-3.66 4.67 -4.32 4.34 -5 4 C-4.01 4 -3.02 4 -2 4 C-1.34 2.68 -0.68 1.36 0 0 Z " fill="#3E3A71" transform="translate(419,99)"/>
<path d="M0 0 C0.66 0 1.32 0 2 0 C2 0.66 2 1.32 2 2 C3.32 2 4.64 2 6 2 C5.67 2.66 5.34 3.32 5 4 C3.68 3.67 2.36 3.34 1 3 C1.66 6.63 2.32 10.26 3 14 C2.34 14 1.68 14 1 14 C1 15.32 1 16.64 1 18 C0.01 17.67 -0.98 17.34 -2 17 C-1.34 17 -0.68 17 0 17 C-0.08378906 16.19175781 -0.16757812 15.38351563 -0.25390625 14.55078125 C-0.35574219 13.48214844 -0.45757813 12.41351563 -0.5625 11.3125 C-0.66691406 10.25675781 -0.77132812 9.20101562 -0.87890625 8.11328125 C-0.99277552 5.18573914 -0.70848415 2.82868856 0 0 Z " fill="#4E4892" transform="translate(651,91)"/>
<path d="M0 0 C0.66 0 1.32 0 2 0 C2 0.66 2 1.32 2 2 C2.66 2 3.32 2 4 2 C4 1.34 4 0.68 4 0 C6.97 0 9.94 0 13 0 C13.33 2.64 13.66 5.28 14 8 C13.34 7.67 12.68 7.34 12 7 C12 5.02 12 3.04 12 1 C10.35 1 8.7 1 7 1 C6.67 1.99 6.34 2.98 6 4 C4.4375 5.6875 4.4375 5.6875 3 7 C1.25372522 4.38058783 0.61277612 2.96175123 0 0 Z " fill="#13B569" transform="translate(305,49)"/>
<path d="M0 0 C2 2 2 2 2.16015625 3.875 C2.12792969 4.57625 2.09570312 5.2775 2.0625 6 C1.90401197 9.11841564 1.90401197 9.11841564 3 12 C3.66 11.01 4.32 10.02 5 9 C5.66 11.64 6.32 14.28 7 17 C6.01 17.33 5.02 17.66 4 18 C4 17.34 4 16.68 4 16 C3.01 15.67 2.02 15.34 1 15 C-0.09506492 11.71480525 -0.09960608 9.26336585 -0.0625 5.8125 C-0.05347656 4.72582031 -0.04445313 3.63914062 -0.03515625 2.51953125 C-0.02355469 1.68808594 -0.01195312 0.85664062 0 0 Z " fill="#514B99" transform="translate(435,102)"/>
<path d="M0 0 C0.59167969 0.08378906 1.18335938 0.16757812 1.79296875 0.25390625 C6.20204955 0.82212384 9.62738169 0.9275251 14 0 C14.66 0.66 15.32 1.32 16 2 C15.01 2.33 14.02 2.66 13 3 C12.34 3.66 11.68 4.32 11 5 C10.67 4.67 10.34 4.34 10 4 C6.93518979 3.8386942 4.94450722 4.01849759 2 5 C2 4.34 2 3.68 2 3 C1.34 3 0.68 3 0 3 C0 2.01 0 1.02 0 0 Z " fill="#1C9459" transform="translate(553,53)"/>
<path d="M0 0 C2.0625 0.4375 2.0625 0.4375 4 1 C4 3.31 4 5.62 4 8 C2.35 7.67 0.7 7.34 -1 7 C-1.04254356 5.00045254 -1.04080783 2.99958364 -1 1 C-0.67 0.67 -0.34 0.34 0 0 Z " fill="#2B2B34" transform="translate(46,125)"/>
<path d="M0 0 C0.99 0 1.98 0 3 0 C3 0.66 3 1.32 3 2 C3.99 1.34 4.98 0.68 6 0 C8.33199388 -0.07905064 10.66832622 -0.08798769 13 0 C12.67 1.65 12.34 3.3 12 5 C10.68 5 9.36 5 8 5 C7.67 4.01 7.34 3.02 7 2 C6.236875 2.37125 5.47375 2.7425 4.6875 3.125 C3.3571875 3.558125 3.3571875 3.558125 2 4 C1.01 3.34 0.02 2.68 -1 2 C-0.67 1.34 -0.34 0.68 0 0 Z " fill="#11BC6D" transform="translate(486,51)"/>
<path d="M0 0 C4.66666667 0 9.33333333 0 14 0 C14 0.66 14 1.32 14 2 C13.34 2 12.68 2 12 2 C12 3.65 12 5.3 12 7 C11.67 6.01 11.34 5.02 11 4 C9.02 4.33 7.04 4.66 5 5 C5 4.01 5 3.02 5 2 C3.35 2 1.7 2 0 2 C0 1.34 0 0.68 0 0 Z " fill="#16A964" transform="translate(414,50)"/>
<path d="M0 0 C0.99 0 1.98 0 3 0 C3.33 0.99 3.66 1.98 4 3 C3.01 3.33 2.02 3.66 1 4 C0.896875 4.928125 0.79375 5.85625 0.6875 6.8125 C-0.0070192 10.03254358 -0.47740939 11.02579865 -3 13 C-2.52060632 8.28596212 -2.03165952 4.33420699 0 0 Z " fill="#25252C" transform="translate(38,208)"/>
<path d="M0 0 C1.53202706 0.25195908 3.05257128 0.57596777 4.5625 0.9375 C5.38878906 1.13214844 6.21507812 1.32679687 7.06640625 1.52734375 C8.02353516 1.76130859 8.02353516 1.76130859 9 2 C7 4 7 4 4 4.1875 C1 4 1 4 -1 3 C-1 3.66 -1 4.32 -1 5 C-2.65 5 -4.3 5 -6 5 C-6.33 4.01 -6.66 3.02 -7 2 C-6.030625 1.855625 -5.06125 1.71125 -4.0625 1.5625 C-1.13513227 1.32437659 -1.13513227 1.32437659 0 0 Z " fill="#1A9A5C" transform="translate(600,37)"/>
<path d="M0 0 C0.66 0 1.32 0 2 0 C2 1.65 2 3.3 2 5 C3.32 4.67 4.64 4.34 6 4 C6.33 4.66 6.66 5.32 7 6 C6.67 6.99 6.34 7.98 6 9 C0.25 7.125 0.25 7.125 -2 6 C-2 5.34 -2 4.68 -2 4 C-1.34 4 -0.68 4 0 4 C0 2.68 0 1.36 0 0 Z " fill="#1C9258" transform="translate(293,30)"/>
<path d="M0 0 C0.66 0.66 1.32 1.32 2 2 C1.7578125 4.3828125 1.7578125 4.3828125 1.125 7.125 C0.92132813 8.03507812 0.71765625 8.94515625 0.5078125 9.8828125 C0.34023438 10.58148438 0.17265625 11.28015625 0 12 C-0.66 12 -1.32 12 -2 12 C-2.33 8.7 -2.66 5.4 -3 2 C-2.34 2 -1.68 2 -1 2 C-0.67 1.34 -0.34 0.68 0 0 Z " fill="#5650A3" transform="translate(409,104)"/>
<path d="M0 0 C1.32 0.66 2.64 1.32 4 2 C3.01 2 2.02 2 1 2 C1 2.99 1 3.98 1 5 C-4.28 5 -9.56 5 -15 5 C-10.92461092 2.96230546 -8.42798723 2.63641111 -4.0234375 2.34375 C-1.77713524 2.16292808 -1.77713524 2.16292808 0 0 Z " fill="#1D8F57" transform="translate(484,33)"/>
<path d="M0 0 C0.66 0.66 1.32 1.32 2 2 C2.99 2.33 3.98 2.66 5 3 C5 3.66 5 4.32 5 5 C0.94568308 6.15837626 -1.21812119 5.83691257 -5 4 C-4.67 3.01 -4.34 2.02 -4 1 C-2 0 -2 0 0 0 Z " fill="#1B965A" transform="translate(529,35)"/>
<path d="M0 0 C1.258125 0.12375 2.51625 0.2475 3.8125 0.375 C4.87404297 0.47941406 4.87404297 0.47941406 5.95703125 0.5859375 C8 1 8 1 11 3 C8.03 2.67 5.06 2.34 2 2 C2 5.3 2 8.6 2 12 C1.67 12 1.34 12 1 12 C0.67 8.04 0.34 4.08 0 0 Z " fill="#504A97" transform="translate(570,94)"/>
<path d="M0 0 C1.98 0 3.96 0 6 0 C4.02 0.99 4.02 0.99 2 2 C2.020625 2.94875 2.04125 3.8975 2.0625 4.875 C2 8 2 8 1 10 C-0.32 9.67 -1.64 9.34 -3 9 C-2.01 9 -1.02 9 0 9 C-0.95865509 6.66924071 -0.95865509 6.66924071 -4 5 C-2.68 5 -1.36 5 0 5 C0 3.35 0 1.7 0 0 Z " fill="#474284" transform="translate(637,93)"/>
<path d="M0 0 C0.89203125 0.01804688 1.7840625 0.03609375 2.703125 0.0546875 C3.71632813 0.08949219 3.71632813 0.08949219 4.75 0.125 C4.42 1.445 4.09 2.765 3.75 4.125 C3.09 4.125 2.43 4.125 1.75 4.125 C1.09 3.465 0.43 2.805 -0.25 2.125 C-2.83354218 1.95812552 -2.83354218 1.95812552 -5.25 2.125 C-5.25 3.115 -5.25 4.105 -5.25 5.125 C-6.57 4.795 -7.89 4.465 -9.25 4.125 C-9.25 3.465 -9.25 2.805 -9.25 2.125 C-6.03817851 0.21891902 -3.71117397 -0.09766247 0 0 Z " fill="#1E8A54" transform="translate(584.25,52.875)"/>
<path d="M0 0 C0.99 0.495 0.99 0.495 2 1 C2 1.99 2 2.98 2 4 C4.31 4 6.62 4 9 4 C9.33 3.34 9.66 2.68 10 2 C10 3.32 10 4.64 10 6 C9.01 6 8.02 6 7 6 C7 6.66 7 7.32 7 8 C5.35 8 3.7 8 2 8 C1.34 5.36 0.68 2.72 0 0 Z " fill="#534D9D" transform="translate(639,102)"/>
<path d="M0 0 C0.66 0 1.32 0 2 0 C2 1.32 2 2.64 2 4 C2.99 4 3.98 4 5 4 C5 4.99 5 5.98 5 7 C5.99 7 6.98 7 8 7 C8.33 6.01 8.66 5.02 9 4 C9.33 5.32 9.66 6.64 10 8 C6.12459955 8.17615457 3.24484731 8.28341107 0 6 C-1 3 -1 3 0 0 Z " fill="#0CCE75" transform="translate(315,32)"/>
<path d="M0 0 C0.66 0 1.32 0 2 0 C2 1.32 2 2.64 2 4 C-1.63423209 6.32590854 -4.77088331 6.16265833 -9 6 C-8.67 4.68 -8.34 3.36 -8 2 C-8 2.66 -8 3.32 -8 4 C-7.01 3.67 -6.02 3.34 -5 3 C-4.67 3.33 -4.34 3.66 -4 4 C-3.67 3.34 -3.34 2.68 -3 2 C-2.34 2 -1.68 2 -1 2 C-0.67 1.34 -0.34 0.68 0 0 Z " fill="#544E9F" transform="translate(490,111)"/>
<path d="M0 0 C0.99 0 1.98 0 3 0 C3.66 0.66 4.32 1.32 5 2 C4.625 4.125 4.625 4.125 4 6 C3.34 5.67 2.68 5.34 2 5 C1.67 5.66 1.34 6.32 1 7 C0.34 7 -0.32 7 -1 7 C-1.625 5.1875 -1.625 5.1875 -2 3 C-1.34 2.01 -0.68 1.02 0 0 Z " fill="#1A995C" transform="translate(491,33)"/>
<path d="M0 0 C0.66 0 1.32 0 2 0 C2.95024979 3.69541586 2.95024979 6.30458414 2 10 C1.01 9.67 0.02 9.34 -1 9 C-1.33 7.02 -1.66 5.04 -2 3 C-1.34 3 -0.68 3 0 3 C0 2.01 0 1.02 0 0 Z " fill="#199D5E" transform="translate(357,30)"/>
<path d="M0 0 C2.97 0 5.94 0 9 0 C9.33 0.99 9.66 1.98 10 3 C9.34 3 8.68 3 8 3 C8 4.32 8 5.64 8 7 C7.34 7 6.68 7 6 7 C5.67 5.02 5.34 3.04 5 1 C3.35 1 1.7 1 0 1 C0 0.67 0 0.34 0 0 Z " fill="#17A561" transform="translate(284,49)"/>
<path d="M0 0 C0.33 0 0.66 0 1 0 C1 4.62 1 9.24 1 14 C0.34 14 -0.32 14 -1 14 C-1.22331199 12.41870971 -1.42804644 10.83478911 -1.625 9.25 C-1.74101563 8.36828125 -1.85703125 7.4865625 -1.9765625 6.578125 C-2.00207817 3.77140122 -1.44843844 2.36615134 0 0 Z " fill="#94949D" transform="translate(38,34)"/>
<path d="M0 0 C0.66 0 1.32 0 2 0 C2.33 1.98 2.66 3.96 3 6 C-0.71599191 6.20086443 -1.77208445 6.1519437 -5 4 C-5 3.34 -5 2.68 -5 2 C-3.35 2 -1.7 2 0 2 C0 1.34 0 0.68 0 0 Z " fill="#13B56A" transform="translate(280,31)"/>
<path d="M0 0 C1.32 0 2.64 0 4 0 C4 1.32 4 2.64 4 4 C4.66 4.33 5.32 4.66 6 5 C3.69 5.33 1.38 5.66 -1 6 C-1 3 -1 3 0 0 Z " fill="#55565F" transform="translate(68,129)"/>
<path d="M0 0 C0.33 0.66 0.66 1.32 1 2 C3.02463255 2.65213292 3.02463255 2.65213292 5 3 C5 2.01 5 1.02 5 0 C5.66 0 6.32 0 7 0 C7.66 1.65 8.32 3.3 9 5 C6.03 5 3.06 5 0 5 C0 3.35 0 1.7 0 0 Z " fill="#534D9C" transform="translate(530,110)"/>
<path d="M0 0 C1.32 0.66 2.64 1.32 4 2 C3.67 2.99 3.34 3.98 3 5 C3 4.34 3 3.68 3 3 C2.34 3 1.68 3 1 3 C0.67 3.99 0.34 4.98 0 6 C-1.98 6.33 -3.96 6.66 -6 7 C-5.34 6.67 -4.68 6.34 -4 6 C-4 5.34 -4 4.68 -4 4 C-3.34 4 -2.68 4 -2 4 C-1.34 2.68 -0.68 1.36 0 0 Z " fill="#564FA3" transform="translate(580,108)"/>
<path d="M0 0 C4.75 1.875 4.75 1.875 7 3 C7.33 2.34 7.66 1.68 8 1 C8 2.32 8 3.64 8 5 C2.58461538 5.36923077 2.58461538 5.36923077 -0.375 3.5 C-0.91125 3.005 -1.4475 2.51 -2 2 C-1.34 2 -0.68 2 0 2 C0 1.34 0 0.68 0 0 Z " fill="#524B9A" transform="translate(351,104)"/>
<path d="M0 0 C0 0.33 0 0.66 0 1 C-9.41002278 3.29612756 -9.41002278 3.29612756 -14 3 C-14.33 2.34 -14.66 1.68 -15 1 C-13.44033408 0.63355422 -11.87707349 0.28239138 -10.3125 -0.0625 C-9.44238281 -0.25972656 -8.57226562 -0.45695312 -7.67578125 -0.66015625 C-4.83998724 -1.02032279 -2.75210018 -0.70909969 0 0 Z " fill="#15AB65" transform="translate(464,51)"/>
<path d="M0 0 C0.66 1.32 1.32 2.64 2 4 C1.34 4.66 0.68 5.32 0 6 C-2.4375 5.625 -2.4375 5.625 -5 5 C-5.99 5 -6.98 5 -8 5 C-7.67 3.68 -7.34 2.36 -7 1 C-5.02 1.66 -3.04 2.32 -1 3 C-0.67 2.01 -0.34 1.02 0 0 Z " fill="#0FC571" transform="translate(368,34)"/>
<path d="M0 0 C4.455 0.99 4.455 0.99 9 2 C5 4 5 4 2 5 C-0.1875 4.0625 -0.1875 4.0625 -2 3 C-1.34 2.01 -0.68 1.02 0 0 Z " fill="#1A9A5C" transform="translate(560,36)"/>
<path d="M0 0 C2.64 0 5.28 0 8 0 C8 0.66 8 1.32 8 2 C8.99 2.33 9.98 2.66 11 3 C7.04 3 3.08 3 -1 3 C-0.67 2.01 -0.34 1.02 0 0 Z " fill="#1E8A55" transform="translate(617,36)"/>
<path d="M0 0 C0.66 0 1.32 0 2 0 C1.1654738 2.50357861 0.20628008 4.66785852 -1 7 C-2.32 7 -3.64 7 -5 7 C-5.33 6.01 -5.66 5.02 -6 4 C-5.01 3.67 -4.02 3.34 -3 3 C-2.484375 2.484375 -1.96875 1.96875 -1.4375 1.4375 C-0.963125 0.963125 -0.48875 0.48875 0 0 Z " fill="#199E5E" transform="translate(515,33)"/>
<path d="M0 0 C0.33 0.66 0.66 1.32 1 2 C2.65 2 4.3 2 6 2 C6.33 1.34 6.66 0.68 7 0 C8.65 0.33 10.3 0.66 12 1 C9.80036434 3.19963566 9.00652461 3.57049648 6 4 C3.25 3.5625 3.25 3.5625 1 3 C1 4.65 1 6.3 1 8 C0.67 8 0.34 8 0 8 C0 5.36 0 2.72 0 0 Z " fill="#504A96" transform="translate(528,97)"/>
<path d="M0 0 C2.31 0.66 4.62 1.32 7 2 C7 2.99 7 3.98 7 5 C4.83125748 4.49396008 3.00032373 4.00016187 1 3 C1.33 3.99 1.66 4.98 2 6 C1.01 6.495 1.01 6.495 0 7 C0 4.69 0 2.38 0 0 Z " fill="#35353E" transform="translate(51,42)"/>
<path d="M0 0 C2.45823172 3.68734758 3.01242616 6.69699971 4 11 C2.68 11.33 1.36 11.66 0 12 C0 8.04 0 4.08 0 0 Z " fill="#35353E" transform="translate(65,37)"/>
<path d="M0 0 C2.31 0 4.62 0 7 0 C6.67 1.32 6.34 2.64 6 4 C6 3.34 6 2.68 6 2 C4.68 2 3.36 2 2 2 C1.34 3.32 0.68 4.64 0 6 C-0.66 5.67 -1.32 5.34 -2 5 C-1.34 3.35 -0.68 1.7 0 0 Z " fill="#1C9359" transform="translate(586,35)"/>
<path d="M0 0 C0.99 0.33 1.98 0.66 3 1 C2.34 3.97 1.68 6.94 1 10 C0.01 9.67 -0.98 9.34 -2 9 C-1.34 6.03 -0.68 3.06 0 0 Z " fill="#9797A0" transform="translate(38,120)"/>
<path d="M0 0 C1.98 0 3.96 0 6 0 C5.67 0.99 5.34 1.98 5 3 C4.34 3 3.68 3 3 3 C0.99787771 3.32033957 -1.00239695 3.65259077 -3 4 C-3.33 3.34 -3.66 2.68 -4 2 C-2.68 2 -1.36 2 0 2 C0 1.34 0 0.68 0 0 Z " fill="#1A9A5D" transform="translate(644,52)"/>
<path d="M0 0 C1.65 0 3.3 0 5 0 C5 0.99 5 1.98 5 3 C-1.625 4.25 -1.625 4.25 -5 2 C-3.35 2 -1.7 2 0 2 C0 1.34 0 0.68 0 0 Z " fill="#0EC873" transform="translate(560,51)"/>
<path d="M0 0 C1.32 0.33 2.64 0.66 4 1 C3.67 1.99 3.34 2.98 3 4 C-2.94 4.495 -2.94 4.495 -9 5 C-8.67 4.34 -8.34 3.68 -8 3 C-5.36 3 -2.72 3 0 3 C0 2.01 0 1.02 0 0 Z " fill="#12B76A" transform="translate(265,30)"/>
<path d="M0 0 C-0.33 0.99 -0.66 1.98 -1 3 C-3.64 3 -6.28 3 -9 3 C-9 2.34 -9 1.68 -9 1 C-2.25 -1.125 -2.25 -1.125 0 0 Z " fill="#11BA6C" transform="translate(634,52)"/>
<path d="M0 0 C1.67542976 0.28604898 3.34385343 0.61781233 5 1 C5 1.66 5 2.32 5 3 C5.66 3 6.32 3 7 3 C7 2.34 7 1.68 7 1 C7.99 1.33 8.98 1.66 10 2 C9.34 2 8.68 2 8 2 C8 2.99 8 3.98 8 5 C5.03 4.505 5.03 4.505 2 4 C2 3.34 2 2.68 2 2 C1.01 1.67 0.02 1.34 -1 1 C-0.67 0.67 -0.34 0.34 0 0 Z " fill="#15AE66" transform="translate(339,35)"/>
<path d="M0 0 C0.66 0.66 1.32 1.32 2 2 C1.625 5.625 1.625 5.625 1 9 C-0.32 9.33 -1.64 9.66 -3 10 C-3 8.68 -3 7.36 -3 6 C-2.01 6 -1.02 6 0 6 C0 4.02 0 2.04 0 0 Z " fill="#4B458B" transform="translate(458,101)"/>
<path d="M0 0 C0.66 0.66 1.32 1.32 2 2 C4.60280568 1.67958603 4.60280568 1.67958603 7 1 C7 1.66 7 2.32 7 3 C3.17679443 4.42258812 0.08718695 5.24042276 -4 5 C-2.68 4.67 -1.36 4.34 0 4 C0 2.68 0 1.36 0 0 Z " fill="#0AD479" transform="translate(393,35)"/>
<path d="M0 0 C0.33 1.32 0.66 2.64 1 4 C-0.98 4.99 -0.98 4.99 -3 6 C-3.66 4.68 -4.32 3.36 -5 2 C-4.01 1.67 -3.02 1.34 -2 1 C-1.34 1.33 -0.68 1.66 0 2 C0 1.34 0 0.68 0 0 Z " fill="#534D9D" transform="translate(368,118)"/>
<path d="M0 0 C1.24546405 2.49092811 0.7767578 3.41080733 0 6 C-1.65 5.67 -3.3 5.34 -5 5 C-4 2 -4 2 -1.9375 0.8125 C-1.298125 0.544375 -0.65875 0.27625 0 0 Z " fill="#1D8F57" transform="translate(493,52)"/>
<path d="M0 0 C-1.1875 1.5 -1.1875 1.5 -3 3 C-5.6875 3.1875 -5.6875 3.1875 -8 3 C-7.67 2.01 -7.34 1.02 -7 0 C-4.05610218 -1.17755913 -3.10046087 -1.03348696 0 0 Z " fill="#8A8A93" transform="translate(64,132)"/>
<path d="M0 0 C0.33 1.32 0.66 2.64 1 4 C1.99 4 2.98 4 4 4 C3.67 6.31 3.34 8.62 3 11 C2.67 11 2.34 11 2 11 C2 9.35 2 7.7 2 6 C1.01 6.33 0.02 6.66 -1 7 C-0.67 4.69 -0.34 2.38 0 0 Z " fill="#52525B" transform="translate(40,121)"/>
<path d="M0 0 C-0.33 0.66 -0.66 1.32 -1 2 C-4.0625 2.625 -4.0625 2.625 -7 3 C-7 2.01 -7 1.02 -7 0 C-4.3333581 -1.33332095 -2.83319697 -0.67102033 0 0 Z " fill="#86878F" transform="translate(72,123)"/>
<path d="M0 0 C1.32 0.33 2.64 0.66 4 1 C4 1.99 4 2.98 4 4 C3.01 4 2.02 4 1 4 C1 6.31 1 8.62 1 11 C0.67 11 0.34 11 0 11 C0 7.37 0 3.74 0 0 Z " fill="#413D78" transform="translate(430,108)"/>
<path d="M0 0 C2.875 -0.125 2.875 -0.125 6 0 C6.66 0.66 7.32 1.32 8 2 C5.36 2.66 2.72 3.32 0 4 C0 2.68 0 1.36 0 0 Z " fill="#554FA2" transform="translate(611,108)"/>
<path d="M0 0 C1.65 0 3.3 0 5 0 C5 0.66 5 1.32 5 2 C5.66 2 6.32 2 7 2 C7 2.66 7 3.32 7 4 C5.35 4.33 3.7 4.66 2 5 C1.34 3.35 0.68 1.7 0 0 Z " fill="#544E9F" transform="translate(495,104)"/>
<path d="M0 0 C-0.33 0.99 -0.66 1.98 -1 3 C-1 2.34 -1 1.68 -1 1 C-4.11785113 1.64644661 -4.11785113 1.64644661 -5 4 C-5.99 4 -6.98 4 -8 4 C-7.625 2.0625 -7.625 2.0625 -7 0 C-4.3333581 -1.33332095 -2.83319697 -0.67102033 0 0 Z " fill="#15AC65" transform="translate(358,49)"/>
<path d="M0 0 C2.31 0 4.62 0 7 0 C6.67 0.99 6.34 1.98 6 3 C6 2.34 6 1.68 6 1 C5.34 1 4.68 1 4 1 C4 1.66 4 2.32 4 3 C2.02 3 0.04 3 -2 3 C-1.34 2.67 -0.68 2.34 0 2 C0 1.34 0 0.68 0 0 Z " fill="#0DC973" transform="translate(341,48)"/>
<path d="M0 0 C-0.33 1.32 -0.66 2.64 -1 4 C-2.65 4 -4.3 4 -6 4 C-6 3.01 -6 2.02 -6 1 C-3.92446352 0.4465236 -2.15634036 0 0 0 Z " fill="#85868F" transform="translate(76,45)"/>
<path d="M0 0 C0.99 0 1.98 0 3 0 C2.67 1.65 2.34 3.3 2 5 C1.34 5 0.68 5 0 5 C-0.33 5.99 -0.66 6.98 -1 8 C-0.67 5.36 -0.34 2.72 0 0 Z " fill="#B2B2BC" transform="translate(35,33)"/>
<path d="M0 0 C0.66 0 1.32 0 2 0 C2.625 2.875 2.625 2.875 3 6 C2.34 6.66 1.68 7.32 1 8 C0.01 6.68 -0.98 5.36 -2 4 C-1.34 4 -0.68 4 0 4 C0 2.68 0 1.36 0 0 Z " fill="#1E8C56" transform="translate(307,29)"/>
<path d="M0 0 C-0.33 0.66 -0.66 1.32 -1 2 C-3.5625 2.625 -3.5625 2.625 -6 3 C-6.33 2.01 -6.66 1.02 -7 0 C-4.3333581 -1.33332095 -2.83319697 -0.67102033 0 0 Z " fill="#25252C" transform="translate(56,207)"/>
<path d="M0 0 C-0.33 1.65 -0.66 3.3 -1 5 C-1.66 4.34 -2.32 3.68 -3 3 C-6.08347826 2.83318891 -6.08347826 2.83318891 -9 3 C-8.67 2.34 -8.34 1.68 -8 1 C-5.30114269 0.42577504 -2.76207303 0 0 0 Z " fill="#282830" transform="translate(79,204)"/>
<path d="M0 0 C0.66 0.33 1.32 0.66 2 1 C1.67 4.3 1.34 7.6 1 11 C0.01 11 -0.98 11 -2 11 C-2 10.01 -2 9.02 -2 8 C-1.34 8 -0.68 8 0 8 C0 5.36 0 2.72 0 0 Z " fill="#403C75" transform="translate(527,96)"/>
<path d="M0 0 C0.99 0 1.98 0 3 0 C2.67 1.65 2.34 3.3 2 5 C0.68 5 -0.64 5 -2 5 C-2 4.01 -2 3.02 -2 2 C-1.34 2 -0.68 2 0 2 C0 1.34 0 0.68 0 0 Z " fill="#17A762" transform="translate(496,51)"/>
<path d="M0 0 C2.125 0.9375 2.125 0.9375 4 2 C3.01 2.33 2.02 2.66 1 3 C0.34 3.66 -0.32 4.32 -1 5 C-1.33 3.68 -1.66 2.36 -2 1 C-1.34 0.67 -0.68 0.34 0 0 Z M-7 3 C-5.35 3 -3.7 3 -2 3 C-2 3.33 -2 3.66 -2 4 C-3.65 4 -5.3 4 -7 4 C-7 3.67 -7 3.34 -7 3 Z " fill="#1F8753" transform="translate(565,53)"/>
<path d="M0 0 C2.97 0.99 5.94 1.98 9 3 C9 3.33 9 3.66 9 4 C6.03 4 3.06 4 0 4 C0 2.68 0 1.36 0 0 Z " fill="#11BD6D" transform="translate(541,50)"/>
<path d="M0 0 C2.31 0.33 4.62 0.66 7 1 C7 1.99 7 2.98 7 4 C5.35 4 3.7 4 2 4 C1.34 2.68 0.68 1.36 0 0 Z " fill="#8E8F97" transform="translate(52,45)"/>
<path d="M0 0 C-1.5625 1.5625 -1.5625 1.5625 -4 3 C-7.75 2.6875 -7.75 2.6875 -11 2 C-11 1.67 -11 1.34 -11 1 C-7.27569643 0.30710631 -3.78916254 -0.11144596 0 0 Z " fill="#12B86B" transform="translate(480,37)"/>
<path d="M0 0 C2.64 0.66 5.28 1.32 8 2 C4.86501708 3.85776765 2.62528568 4.20140476 -1 4 C-0.67 2.68 -0.34 1.36 0 0 Z " fill="#0EC873" transform="translate(461,35)"/>
<path d="M0 0 C0.66 0 1.32 0 2 0 C2.33 2.64 2.66 5.28 3 8 C2.67 7.34 2.34 6.68 2 6 C1.01 5.67 0.02 5.34 -1 5 C-0.67 3.35 -0.34 1.7 0 0 Z " fill="#454181" transform="translate(585,104)"/>
<path d="M0 0 C0.66 0 1.32 0 2 0 C2.33 1.32 2.66 2.64 3 4 C2.34 4 1.68 4 1 4 C1 4.99 1 5.98 1 7 C0.34 7 -0.32 7 -1 7 C-0.67 4.69 -0.34 2.38 0 0 Z " fill="#199E5E" transform="translate(411,50)"/>
<path d="M0 0 C2 2 2 2 2.125 5.625 C2.08375 6.73875 2.0425 7.8525 2 9 C1.01 8.67 0.02 8.34 -1 8 C-0.67 5.36 -0.34 2.72 0 0 Z " fill="#45454E" transform="translate(35,38)"/>
<path d="M0 0 C1.65 0 3.3 0 5 0 C5.33 1.32 5.66 2.64 6 4 C3.69 3.34 1.38 2.68 -1 2 C-0.67 1.34 -0.34 0.68 0 0 Z " fill="#85858E" transform="translate(69,37)"/>
<path d="M0 0 C1.32 0.33 2.64 0.66 4 1 C4.33 2.32 4.66 3.64 5 5 C3.68 5 2.36 5 1 5 C0.67 3.35 0.34 1.7 0 0 Z " fill="#1F8753" transform="translate(439,31)"/>
</svg>
